<?xml version="1.0" encoding="UTF-8"?>
<svg xmlns="http://www.w3.org/2000/svg" xmlns:xlink="http://www.w3.org/1999/xlink" width="600" height="450" viewBox="0 0 600 450">
<defs>
<g>
<g id="glyph-0-0-5aecf158">
<path d="M 6.78125 -2 C 6.78125 -2.140625 6.65625 -2.140625 6.5625 -2.140625 C 6.390625 -2.140625 6.390625 -2.125 6.296875 -1.8125 C 6.125 -1.109375 5.859375 -0.15625 5.234375 -0.15625 C 4.859375 -0.15625 4.828125 -0.46875 4.828125 -0.75 C 4.828125 -1.078125 4.921875 -1.46875 4.9375 -1.546875 C 5.015625 -1.828125 5.015625 -1.84375 5.015625 -2.03125 C 5.015625 -2.984375 4.03125 -3.359375 3.15625 -3.484375 C 3.46875 -3.6875 3.765625 -3.96875 4.140625 -4.40625 C 4.875 -5.234375 5.421875 -5.875 6.125 -5.875 C 6.390625 -5.875 6.5 -5.71875 6.5 -5.71875 C 5.90625 -5.609375 5.84375 -5.125 5.84375 -5.015625 C 5.84375 -4.828125 5.96875 -4.5625 6.328125 -4.5625 C 6.640625 -4.5625 7.03125 -4.8125 7.03125 -5.34375 C 7.03125 -5.71875 6.78125 -6.1875 6.140625 -6.1875 C 5.40625 -6.1875 4.796875 -5.59375 4.328125 -5.046875 C 3.53125 -4.109375 3.296875 -3.890625 2.8125 -3.65625 L 4.234375 -9.359375 C 4.25 -9.40625 4.28125 -9.546875 4.28125 -9.546875 C 4.28125 -9.671875 4.203125 -9.71875 4.09375 -9.71875 C 4.046875 -9.71875 3.90625 -9.703125 3.859375 -9.6875 L 2.484375 -9.578125 C 2.3125 -9.5625 2.15625 -9.546875 2.15625 -9.28125 C 2.15625 -9.125 2.296875 -9.125 2.484375 -9.125 C 3.15625 -9.125 3.1875 -9.03125 3.1875 -8.890625 C 3.1875 -8.84375 3.15625 -8.65625 3.15625 -8.65625 L 1.078125 -0.390625 C 1.0625 -0.359375 1.046875 -0.203125 1.046875 -0.203125 C 1.046875 -0.0625 1.171875 0.15625 1.4375 0.15625 C 1.859375 0.15625 1.953125 -0.234375 1.984375 -0.359375 L 2.703125 -3.203125 C 3.21875 -3.140625 4.109375 -2.84375 4.109375 -2.03125 C 4.109375 -1.9375 4.109375 -1.875 4.078125 -1.6875 C 4.015625 -1.4375 4.015625 -1.34375 4.015625 -1.203125 C 4.015625 -0.203125 4.671875 0.15625 5.1875 0.15625 C 5.8125 0.15625 6.125 -0.3125 6.265625 -0.578125 C 6.578125 -1.109375 6.78125 -1.953125 6.78125 -2 Z M 6.78125 -2 "/>
</g>
<g id="glyph-1-0-5aecf158">
<path d="M 7.09375 -4.78125 C 7.09375 -1.515625 5.953125 0.203125 3.84375 0.203125 C 1.71875 0.203125 0.609375 -1.515625 0.609375 -4.859375 C 0.609375 -8.1875 1.703125 -9.921875 3.84375 -9.921875 C 6 -9.921875 7.09375 -8.21875 7.09375 -4.78125 Z M 5.84375 -4.890625 C 5.84375 -7.546875 5.1875 -8.828125 3.84375 -8.828125 C 2.515625 -8.828125 1.859375 -7.5625 1.859375 -4.84375 C 1.859375 -2.125 2.515625 -0.8125 3.828125 -0.8125 C 5.1875 -0.8125 5.84375 -2.078125 5.84375 -4.890625 Z M 5.84375 -4.890625 "/>
</g>
<g id="glyph-1-1-5aecf158">
<path d="M 2.671875 0 C 2.671875 0 1.21875 0 1.21875 0 C 1.21875 0 1.21875 -1.453125 1.21875 -1.453125 C 1.21875 -1.453125 2.671875 -1.453125 2.671875 -1.453125 C 2.671875 -1.453125 2.671875 0 2.671875 0 Z M 2.671875 0 "/>
</g>
<g id="glyph-1-2-5aecf158">
<path d="M 7.15625 -7.015625 C 7.15625 -5.796875 6.4375 -4.765625 5.046875 -4.015625 C 5.046875 -4.015625 3.65625 -3.265625 3.65625 -3.265625 C 2.4375 -2.546875 1.984375 -2.03125 1.859375 -1.21875 C 1.859375 -1.21875 7.078125 -1.21875 7.078125 -1.21875 C 7.078125 -1.21875 7.078125 0 7.078125 0 C 7.078125 0 0.46875 0 0.46875 0 C 0.59375 -2.1875 1.1875 -3.125 3.265625 -4.296875 C 3.265625 -4.296875 4.546875 -5.03125 4.546875 -5.03125 C 5.4375 -5.53125 5.890625 -6.203125 5.890625 -6.984375 C 5.890625 -8.046875 5.046875 -8.84375 3.9375 -8.84375 C 2.71875 -8.84375 2.03125 -8.140625 1.9375 -6.484375 C 1.9375 -6.484375 0.703125 -6.484375 0.703125 -6.484375 C 0.765625 -8.890625 1.953125 -9.921875 3.96875 -9.921875 C 5.859375 -9.921875 7.15625 -8.6875 7.15625 -7.015625 Z M 7.15625 -7.015625 "/>
</g>
<g id="glyph-1-3-5aecf158">
<path d="M 7.28125 -2.375 C 7.28125 -2.375 5.8125 -2.375 5.8125 -2.375 C 5.8125 -2.375 5.8125 0 5.8125 0 C 5.8125 0 4.578125 0 4.578125 0 C 4.578125 0 4.578125 -2.375 4.578125 -2.375 C 4.578125 -2.375 0.390625 -2.375 0.390625 -2.375 C 0.390625 -2.375 0.390625 -3.6875 0.390625 -3.6875 C 0.390625 -3.6875 4.90625 -9.921875 4.90625 -9.921875 C 4.90625 -9.921875 5.8125 -9.921875 5.8125 -9.921875 C 5.8125 -9.921875 5.8125 -3.484375 5.8125 -3.484375 C 5.8125 -3.484375 7.28125 -3.484375 7.28125 -3.484375 C 7.28125 -3.484375 7.28125 -2.375 7.28125 -2.375 Z M 4.578125 -3.484375 C 4.578125 -3.484375 4.578125 -7.828125 4.578125 -7.828125 C 4.578125 -7.828125 1.46875 -3.484375 1.46875 -3.484375 C 1.46875 -3.484375 4.578125 -3.484375 4.578125 -3.484375 Z M 4.578125 -3.484375 "/>
</g>
<g id="glyph-1-4-5aecf158">
<path d="M 7.1875 -3.078125 C 7.1875 -1.140625 5.828125 0.203125 3.9375 0.203125 C 1.671875 0.203125 0.609375 -1.421875 0.609375 -4.515625 C 0.609375 -7.984375 1.84375 -9.921875 4.15625 -9.921875 C 5.671875 -9.921875 6.734375 -8.953125 6.96875 -7.34375 C 6.96875 -7.34375 5.734375 -7.34375 5.734375 -7.34375 C 5.546875 -8.28125 4.9375 -8.828125 4.078125 -8.828125 C 2.65625 -8.828125 1.875 -7.484375 1.859375 -5.0625 C 2.390625 -5.796875 3.15625 -6.171875 4.140625 -6.171875 C 5.921875 -6.171875 7.1875 -4.921875 7.1875 -3.078125 Z M 5.921875 -2.984375 C 5.921875 -4.3125 5.1875 -5.078125 3.984375 -5.078125 C 2.765625 -5.078125 1.9375 -4.28125 1.9375 -3.046875 C 1.9375 -1.78125 2.796875 -0.875 3.953125 -0.875 C 5.078125 -0.875 5.921875 -1.734375 5.921875 -2.984375 Z M 5.921875 -2.984375 "/>
</g>
<g id="glyph-1-5-5aecf158">
<path d="M 7.1875 -2.796875 C 7.1875 -1 5.8125 0.203125 3.84375 0.203125 C 1.890625 0.203125 0.515625 -1 0.515625 -2.8125 C 0.515625 -3.90625 1.078125 -4.671875 2.21875 -5.21875 C 1.203125 -5.859375 0.875 -6.359375 0.875 -7.28125 C 0.875 -8.828125 2.09375 -9.921875 3.84375 -9.921875 C 5.609375 -9.921875 6.828125 -8.828125 6.828125 -7.28125 C 6.828125 -6.34375 6.5 -5.84375 5.46875 -5.21875 C 6.625 -4.671875 7.1875 -3.90625 7.1875 -2.796875 Z M 5.578125 -7.25 C 5.578125 -8.21875 4.90625 -8.828125 3.84375 -8.828125 C 2.8125 -8.828125 2.125 -8.21875 2.125 -7.265625 C 2.125 -6.328125 2.8125 -5.71875 3.84375 -5.71875 C 4.890625 -5.71875 5.578125 -6.328125 5.578125 -7.25 Z M 5.921875 -2.78125 C 5.921875 -3.953125 5.078125 -4.671875 3.84375 -4.671875 C 2.625 -4.671875 1.78125 -3.953125 1.78125 -2.78125 C 1.78125 -1.625 2.625 -0.875 3.828125 -0.875 C 5.078125 -0.875 5.921875 -1.609375 5.921875 -2.78125 Z M 5.921875 -2.78125 "/>
</g>
<g id="glyph-1-6-5aecf158">
<path d="M 4.859375 0 C 4.859375 0 3.625 0 3.625 0 C 3.625 0 3.625 -7.0625 3.625 -7.0625 C 3.625 -7.0625 1.421875 -7.0625 1.421875 -7.0625 C 1.421875 -7.0625 1.421875 -7.953125 1.421875 -7.953125 C 3.328125 -8.1875 3.609375 -8.40625 4.046875 -9.921875 C 4.046875 -9.921875 4.859375 -9.921875 4.859375 -9.921875 C 4.859375 -9.921875 4.859375 0 4.859375 0 Z M 4.859375 0 "/>
</g>
<g id="glyph-1-7-5aecf158">
<path d="M 7.078125 -2.890625 C 7.078125 -1.015625 5.765625 0.203125 3.71875 0.203125 C 1.6875 0.203125 0.609375 -0.78125 0.453125 -3 C 0.453125 -3 1.6875 -3 1.6875 -3 C 1.765625 -1.546875 2.421875 -0.875 3.765625 -0.875 C 5.046875 -0.875 5.828125 -1.625 5.828125 -2.875 C 5.828125 -3.96875 5.125 -4.625 3.765625 -4.625 C 3.765625 -4.625 3.09375 -4.625 3.09375 -4.625 C 3.09375 -4.625 3.09375 -5.65625 3.09375 -5.65625 C 5.0625 -5.65625 5.53125 -6.09375 5.53125 -7.15625 C 5.53125 -8.203125 4.875 -8.84375 3.78125 -8.84375 C 2.515625 -8.84375 1.921875 -8.1875 1.890625 -6.71875 C 1.890625 -6.71875 0.65625 -6.71875 0.65625 -6.71875 C 0.703125 -8.828125 1.765625 -9.921875 3.765625 -9.921875 C 5.65625 -9.921875 6.796875 -8.90625 6.796875 -7.203125 C 6.796875 -6.203125 6.328125 -5.5625 5.40625 -5.1875 C 6.59375 -4.78125 7.078125 -4.09375 7.078125 -2.890625 Z M 7.078125 -2.890625 "/>
</g>
<g id="glyph-1-8-5aecf158">
<path d="M 7.1875 -3.296875 C 7.1875 -1.1875 5.78125 0.203125 3.78125 0.203125 C 2.015625 0.203125 0.890625 -0.578125 0.484375 -2.546875 C 0.484375 -2.546875 1.71875 -2.546875 1.71875 -2.546875 C 2.015625 -1.421875 2.671875 -0.875 3.75 -0.875 C 5.09375 -0.875 5.921875 -1.6875 5.921875 -3.125 C 5.921875 -4.59375 5.078125 -5.453125 3.75 -5.453125 C 2.984375 -5.453125 2.5 -5.203125 1.9375 -4.515625 C 1.9375 -4.515625 0.796875 -4.515625 0.796875 -4.515625 C 0.796875 -4.515625 1.546875 -9.71875 1.546875 -9.71875 C 1.546875 -9.71875 6.65625 -9.71875 6.65625 -9.71875 C 6.65625 -9.71875 6.65625 -8.5 6.65625 -8.5 C 6.65625 -8.5 2.53125 -8.5 2.53125 -8.5 C 2.53125 -8.5 2.140625 -5.9375 2.140625 -5.9375 C 2.71875 -6.359375 3.28125 -6.53125 3.96875 -6.53125 C 5.875 -6.53125 7.1875 -5.25 7.1875 -3.296875 Z M 7.1875 -3.296875 "/>
</g>
<g id="glyph-2-0-5aecf158">
<path d="M -6.625 -10.84375 L -9.125 -11.265625 C -9.1875 -11.28125 -9.25 -11.28125 -9.3125 -11.28125 C -9.484375 -11.28125 -9.484375 -11.15625 -9.484375 -10.9375 L -9.484375 -3.75 C -9.484375 -3.46875 -9.484375 -3.4375 -9.21875 -3.34375 L -6.71875 -2.515625 C -6.53125 -2.453125 -6.484375 -2.453125 -6.484375 -2.453125 C -6.328125 -2.453125 -6.328125 -2.625 -6.328125 -2.65625 C -6.328125 -2.71875 -6.328125 -2.765625 -6.375 -2.8125 C -6.390625 -2.84375 -6.40625 -2.859375 -6.78125 -3 C -8.75 -3.65625 -9.046875 -4.046875 -9.046875 -5.859375 L -9.046875 -6.328125 C -9.046875 -6.65625 -8.984375 -6.65625 -8.890625 -6.65625 C -8.796875 -6.65625 -8.671875 -6.625 -8.578125 -6.59375 L -1.0625 -4.71875 C -0.578125 -4.59375 -0.4375 -4.46875 -0.4375 -3.234375 L -0.4375 -3.015625 C -0.4375 -2.765625 -0.4375 -2.625 -0.171875 -2.625 C 0 -2.625 0 -2.78125 0 -2.859375 C 0 -3.5625 -0.046875 -4.3125 -0.046875 -5.03125 C -0.046875 -5.75 0 -6.515625 0 -7.21875 C 0 -7.34375 0 -7.515625 -0.28125 -7.515625 C -0.4375 -7.515625 -0.4375 -7.375 -0.4375 -7.171875 L -0.4375 -6.953125 C -0.4375 -6.734375 -0.46875 -6.296875 -0.46875 -6.265625 C -0.5 -5.859375 -0.5625 -5.796875 -0.75 -5.796875 C -0.796875 -5.796875 -0.828125 -5.796875 -1.015625 -5.859375 L -8.546875 -7.734375 C -8.96875 -7.828125 -9 -7.9375 -9.015625 -8.046875 C -9.046875 -8.15625 -9.046875 -8.546875 -9.046875 -8.78125 C -9.046875 -10.234375 -8.84375 -10.5625 -7.984375 -10.5625 C -7.8125 -10.5625 -7.546875 -10.5625 -6.71875 -10.421875 C -6.5625 -10.390625 -6.515625 -10.390625 -6.515625 -10.390625 C -6.328125 -10.390625 -6.328125 -10.53125 -6.328125 -10.59375 C -6.328125 -10.78125 -6.375 -10.8125 -6.625 -10.84375 Z M -6.625 -10.84375 "/>
</g>
<g id="glyph-3-0-5aecf158">
<path d="M 3.328125 -4.640625 C 3.296875 -4.640625 3.25 -4.625 3.21875 -4.59375 C 2.125 -3.140625 -0.671875 -2.171875 -2.90625 -2.171875 L -4.09375 -2.171875 C -6.328125 -2.171875 -9.125 -3.140625 -10.21875 -4.59375 C -10.25 -4.625 -10.296875 -4.640625 -10.328125 -4.640625 C -10.40625 -4.640625 -10.46875 -4.578125 -10.46875 -4.515625 C -10.46875 -4.484375 -10.453125 -4.453125 -10.4375 -4.421875 C -9.28125 -2.890625 -6.484375 -1.40625 -4.09375 -1.40625 L -2.90625 -1.40625 C -0.515625 -1.40625 2.28125 -2.890625 3.4375 -4.421875 C 3.453125 -4.453125 3.46875 -4.484375 3.46875 -4.515625 C 3.46875 -4.578125 3.40625 -4.640625 3.328125 -4.640625 Z M 3.328125 -4.640625 "/>
</g>
<g id="glyph-4-0-5aecf158">
<path d="M -2 -6.828125 C -2.140625 -6.828125 -2.140625 -6.71875 -2.140625 -6.625 C -2.140625 -6.453125 -2.125 -6.4375 -1.90625 -6.375 C -0.703125 -5.984375 -0.15625 -5.296875 -0.15625 -4.703125 C -0.15625 -4.421875 -0.328125 -4.046875 -1.046875 -4.046875 C -1.390625 -4.046875 -1.984375 -4.203125 -2.46875 -4.3125 L -4.375 -4.78125 C -5.109375 -4.984375 -5.875 -5.359375 -5.875 -6.015625 C -5.875 -6.0625 -5.875 -6.40625 -5.6875 -6.640625 C -5.546875 -6.078125 -5.015625 -6.078125 -5.015625 -6.078125 C -4.828125 -6.078125 -4.5625 -6.203125 -4.5625 -6.5625 C -4.5625 -6.8125 -4.765625 -7.25 -5.3125 -7.25 C -6.015625 -7.25 -6.1875 -6.4375 -6.1875 -6.03125 C -6.1875 -5.265625 -5.5 -4.796875 -5.234375 -4.65625 C -6.078125 -4.359375 -6.1875 -3.671875 -6.1875 -3.3125 C -6.1875 -1.921875 -4.359375 -1.15625 -4.03125 -1.15625 C -3.890625 -1.15625 -3.890625 -1.296875 -3.890625 -1.375 C -3.890625 -1.546875 -3.90625 -1.546875 -4.125 -1.625 C -5.328125 -2 -5.875 -2.734375 -5.875 -3.296875 C -5.875 -3.703125 -5.5625 -3.96875 -5 -3.96875 C -4.65625 -3.96875 -3.96875 -3.796875 -3.453125 -3.671875 L -2.1875 -3.34375 C -1.28125 -3.125 -0.15625 -2.828125 -0.15625 -1.984375 C -0.15625 -1.953125 -0.15625 -1.609375 -0.34375 -1.375 C -0.46875 -1.796875 -0.8125 -1.921875 -1.015625 -1.921875 C -1.390625 -1.921875 -1.46875 -1.625 -1.46875 -1.4375 C -1.46875 -1.09375 -1.171875 -0.734375 -0.71875 -0.734375 C -0.171875 -0.734375 0.15625 -1.328125 0.15625 -1.96875 C 0.15625 -2.640625 -0.375 -3.109375 -0.796875 -3.34375 C 0 -3.625 0.15625 -4.3125 0.15625 -4.671875 C 0.15625 -6.125 -1.71875 -6.828125 -2 -6.828125 Z M -2 -6.828125 "/>
</g>
<g id="glyph-5-0-5aecf158">
<path d="M -4.859375 -10.109375 C -5.015625 -10.109375 -5.140625 -9.984375 -5.140625 -9.828125 L -5.140625 -1.0625 C -5.140625 -0.90625 -5.015625 -0.78125 -4.859375 -0.78125 C -4.703125 -0.78125 -4.578125 -0.90625 -4.578125 -1.0625 L -4.578125 -9.828125 C -4.578125 -9.984375 -4.703125 -10.109375 -4.859375 -10.109375 Z M -2.140625 -10.109375 C -2.296875 -10.109375 -2.421875 -9.984375 -2.421875 -9.828125 L -2.421875 -1.0625 C -2.421875 -0.90625 -2.296875 -0.78125 -2.140625 -0.78125 C -1.984375 -0.78125 -1.859375 -0.90625 -1.859375 -1.0625 L -1.859375 -9.828125 C -1.859375 -9.984375 -1.984375 -10.109375 -2.140625 -10.109375 Z M -2.140625 -10.109375 "/>
</g>
<g id="glyph-6-0-5aecf158">
<path d="M 0 -5.859375 L -0.4375 -5.859375 L -0.4375 -5.421875 C -0.4375 -4.15625 -0.59375 -4.109375 -1.109375 -4.109375 L -8.953125 -4.109375 C -9.296875 -4.109375 -9.328125 -4.109375 -9.328125 -3.796875 C -8.421875 -2.921875 -8.421875 -1.6875 -8.421875 -1.25 L -8 -1.25 C -8 -1.53125 -8 -2.359375 -8.359375 -3.078125 L -1.109375 -3.078125 C -0.609375 -3.078125 -0.4375 -3.03125 -0.4375 -1.78125 L -0.4375 -1.328125 L 0 -1.328125 C -0.046875 -1.8125 -0.046875 -3.03125 -0.046875 -3.59375 C -0.046875 -4.15625 -0.046875 -5.375 0 -5.859375 Z M 0 -5.859375 "/>
</g>
<g id="glyph-7-0-5aecf158">
<path d="M -2.90625 -4.03125 L -4.09375 -4.03125 C -6.484375 -4.03125 -9.28125 -2.5625 -10.4375 -1.015625 C -10.453125 -1 -10.46875 -0.96875 -10.46875 -0.9375 C -10.46875 -0.875 -10.40625 -0.796875 -10.328125 -0.796875 C -10.296875 -0.796875 -10.25 -0.828125 -10.21875 -0.859375 C -9.125 -2.3125 -6.328125 -3.28125 -4.09375 -3.28125 L -2.90625 -3.28125 C -0.671875 -3.28125 2.125 -2.3125 3.21875 -0.859375 C 3.25 -0.828125 3.296875 -0.796875 3.328125 -0.796875 C 3.40625 -0.796875 3.46875 -0.875 3.46875 -0.9375 C 3.46875 -0.96875 3.453125 -1 3.4375 -1.015625 C 2.28125 -2.5625 -0.515625 -4.03125 -2.90625 -4.03125 Z M -2.90625 -4.03125 "/>
</g>
<g id="glyph-8-0-5aecf158">
<path d="M 3.328125 -4.640625 C 3.296875 -4.640625 3.25 -4.625 3.21875 -4.59375 C 2.125 -3.140625 -0.671875 -2.171875 -2.90625 -2.171875 L -4.09375 -2.171875 C -6.328125 -2.171875 -9.125 -3.140625 -10.21875 -4.59375 C -10.25 -4.625 -10.296875 -4.640625 -10.328125 -4.640625 C -10.40625 -4.640625 -10.46875 -4.578125 -10.46875 -4.515625 C -10.46875 -4.484375 -10.453125 -4.453125 -10.4375 -4.421875 C -9.28125 -2.890625 -6.484375 -1.40625 -4.09375 -1.40625 L -2.90625 -1.40625 C -0.515625 -1.40625 2.28125 -2.890625 3.4375 -4.421875 C 3.453125 -4.453125 3.46875 -4.484375 3.46875 -4.515625 C 3.46875 -4.578125 3.40625 -4.640625 3.328125 -4.640625 Z M 3.328125 -4.640625 "/>
</g>
<g id="glyph-9-0-5aecf158">
<path d="M -6.625 -10.84375 L -9.125 -11.265625 C -9.1875 -11.28125 -9.25 -11.28125 -9.3125 -11.28125 C -9.484375 -11.28125 -9.484375 -11.15625 -9.484375 -10.9375 L -9.484375 -3.75 C -9.484375 -3.46875 -9.484375 -3.4375 -9.21875 -3.34375 L -6.71875 -2.515625 C -6.53125 -2.453125 -6.484375 -2.453125 -6.484375 -2.453125 C -6.328125 -2.453125 -6.328125 -2.625 -6.328125 -2.65625 C -6.328125 -2.71875 -6.328125 -2.765625 -6.375 -2.8125 C -6.390625 -2.84375 -6.40625 -2.859375 -6.78125 -3 C -8.75 -3.65625 -9.046875 -4.046875 -9.046875 -5.859375 L -9.046875 -6.328125 C -9.046875 -6.65625 -8.984375 -6.65625 -8.890625 -6.65625 C -8.796875 -6.65625 -8.671875 -6.625 -8.578125 -6.59375 L -1.0625 -4.71875 C -0.578125 -4.59375 -0.4375 -4.46875 -0.4375 -3.234375 L -0.4375 -3.015625 C -0.4375 -2.765625 -0.4375 -2.625 -0.171875 -2.625 C 0 -2.625 0 -2.78125 0 -2.859375 C 0 -3.5625 -0.046875 -4.3125 -0.046875 -5.03125 C -0.046875 -5.75 0 -6.515625 0 -7.21875 C 0 -7.34375 0 -7.515625 -0.28125 -7.515625 C -0.4375 -7.515625 -0.4375 -7.375 -0.4375 -7.171875 L -0.4375 -6.953125 C -0.4375 -6.734375 -0.46875 -6.296875 -0.46875 -6.265625 C -0.5 -5.859375 -0.5625 -5.796875 -0.75 -5.796875 C -0.796875 -5.796875 -0.828125 -5.796875 -1.015625 -5.859375 L -8.546875 -7.734375 C -8.96875 -7.828125 -9 -7.9375 -9.015625 -8.046875 C -9.046875 -8.15625 -9.046875 -8.546875 -9.046875 -8.78125 C -9.046875 -10.234375 -8.84375 -10.5625 -7.984375 -10.5625 C -7.8125 -10.5625 -7.546875 -10.5625 -6.71875 -10.421875 C -6.5625 -10.390625 -6.515625 -10.390625 -6.515625 -10.390625 C -6.328125 -10.390625 -6.328125 -10.53125 -6.328125 -10.59375 C -6.328125 -10.78125 -6.375 -10.8125 -6.625 -10.84375 Z M -6.625 -10.84375 "/>
</g>
<g id="glyph-9-1-5aecf158">
<path d="M -2 -6.828125 C -2.140625 -6.828125 -2.140625 -6.71875 -2.140625 -6.625 C -2.140625 -6.453125 -2.125 -6.4375 -1.90625 -6.375 C -0.703125 -5.984375 -0.15625 -5.296875 -0.15625 -4.703125 C -0.15625 -4.421875 -0.328125 -4.046875 -1.046875 -4.046875 C -1.390625 -4.046875 -1.984375 -4.203125 -2.46875 -4.3125 L -4.375 -4.78125 C -5.109375 -4.984375 -5.875 -5.359375 -5.875 -6.015625 C -5.875 -6.0625 -5.875 -6.40625 -5.6875 -6.640625 C -5.546875 -6.078125 -5.015625 -6.078125 -5.015625 -6.078125 C -4.828125 -6.078125 -4.5625 -6.203125 -4.5625 -6.5625 C -4.5625 -6.8125 -4.765625 -7.25 -5.3125 -7.25 C -6.015625 -7.25 -6.1875 -6.4375 -6.1875 -6.03125 C -6.1875 -5.265625 -5.5 -4.796875 -5.234375 -4.65625 C -6.078125 -4.359375 -6.1875 -3.671875 -6.1875 -3.3125 C -6.1875 -1.921875 -4.359375 -1.15625 -4.03125 -1.15625 C -3.890625 -1.15625 -3.890625 -1.296875 -3.890625 -1.375 C -3.890625 -1.546875 -3.90625 -1.546875 -4.125 -1.625 C -5.328125 -2 -5.875 -2.734375 -5.875 -3.296875 C -5.875 -3.703125 -5.5625 -3.96875 -5 -3.96875 C -4.65625 -3.96875 -3.96875 -3.796875 -3.453125 -3.671875 L -2.1875 -3.34375 C -1.28125 -3.125 -0.15625 -2.828125 -0.15625 -1.984375 C -0.15625 -1.953125 -0.15625 -1.609375 -0.34375 -1.375 C -0.46875 -1.796875 -0.8125 -1.921875 -1.015625 -1.921875 C -1.390625 -1.921875 -1.46875 -1.625 -1.46875 -1.4375 C -1.46875 -1.09375 -1.171875 -0.734375 -0.71875 -0.734375 C -0.171875 -0.734375 0.15625 -1.328125 0.15625 -1.96875 C 0.15625 -2.640625 -0.375 -3.109375 -0.796875 -3.34375 C 0 -3.625 0.15625 -4.3125 0.15625 -4.671875 C 0.15625 -6.125 -1.71875 -6.828125 -2 -6.828125 Z M -2 -6.828125 "/>
</g>
<g id="glyph-10-0-5aecf158">
<path d="M 3.328125 -4.640625 C 3.296875 -4.640625 3.25 -4.625 3.21875 -4.59375 C 2.125 -3.140625 -0.671875 -2.171875 -2.90625 -2.171875 L -4.09375 -2.171875 C -6.328125 -2.171875 -9.125 -3.140625 -10.21875 -4.59375 C -10.25 -4.625 -10.296875 -4.640625 -10.328125 -4.640625 C -10.40625 -4.640625 -10.46875 -4.578125 -10.46875 -4.515625 C -10.46875 -4.484375 -10.453125 -4.453125 -10.4375 -4.421875 C -9.28125 -2.890625 -6.484375 -1.40625 -4.09375 -1.40625 L -2.90625 -1.40625 C -0.515625 -1.40625 2.28125 -2.890625 3.4375 -4.421875 C 3.453125 -4.453125 3.46875 -4.484375 3.46875 -4.515625 C 3.46875 -4.578125 3.40625 -4.640625 3.328125 -4.640625 Z M 3.328125 -4.640625 "/>
</g>
<g id="glyph-10-1-5aecf158">
<path d="M -2.90625 -4.03125 L -4.09375 -4.03125 C -6.484375 -4.03125 -9.28125 -2.5625 -10.4375 -1.015625 C -10.453125 -1 -10.46875 -0.96875 -10.46875 -0.9375 C -10.46875 -0.875 -10.40625 -0.796875 -10.328125 -0.796875 C -10.296875 -0.796875 -10.25 -0.828125 -10.21875 -0.859375 C -9.125 -2.3125 -6.328125 -3.28125 -4.09375 -3.28125 L -2.90625 -3.28125 C -0.671875 -3.28125 2.125 -2.3125 3.21875 -0.859375 C 3.25 -0.828125 3.296875 -0.796875 3.328125 -0.796875 C 3.40625 -0.796875 3.46875 -0.875 3.46875 -0.9375 C 3.46875 -0.96875 3.453125 -1 3.4375 -1.015625 C 2.28125 -2.5625 -0.515625 -4.03125 -2.90625 -4.03125 Z M -2.90625 -4.03125 "/>
</g>
<g id="glyph-10-2-5aecf158">
<path d="M -3.5 -10.109375 C -3.65625 -10.109375 -3.78125 -9.984375 -3.78125 -9.828125 L -3.78125 -1.0625 C -3.78125 -0.90625 -3.65625 -0.78125 -3.5 -0.78125 C -3.34375 -0.78125 -3.21875 -0.90625 -3.21875 -1.0625 L -3.21875 -9.828125 C -3.21875 -9.984375 -3.34375 -10.109375 -3.5 -10.109375 Z M -3.5 -10.109375 "/>
</g>
<g id="glyph-11-0-5aecf158">
<path d="M -4.859375 -10.109375 C -5.015625 -10.109375 -5.140625 -9.984375 -5.140625 -9.828125 L -5.140625 -1.0625 C -5.140625 -0.90625 -5.015625 -0.78125 -4.859375 -0.78125 C -4.703125 -0.78125 -4.578125 -0.90625 -4.578125 -1.0625 L -4.578125 -9.828125 C -4.578125 -9.984375 -4.703125 -10.109375 -4.859375 -10.109375 Z M -2.140625 -10.109375 C -2.296875 -10.109375 -2.421875 -9.984375 -2.421875 -9.828125 L -2.421875 -1.0625 C -2.421875 -0.90625 -2.296875 -0.78125 -2.140625 -0.78125 C -1.984375 -0.78125 -1.859375 -0.90625 -1.859375 -1.0625 L -1.859375 -9.828125 C -1.859375 -9.984375 -1.984375 -10.109375 -2.140625 -10.109375 Z M -2.140625 -10.109375 "/>
</g>
<g id="glyph-11-1-5aecf158">
<path d="M 0 -5.859375 L -0.4375 -5.859375 L -0.4375 -5.421875 C -0.4375 -4.15625 -0.59375 -4.109375 -1.109375 -4.109375 L -8.953125 -4.109375 C -9.296875 -4.109375 -9.328125 -4.109375 -9.328125 -3.796875 C -8.421875 -2.921875 -8.421875 -1.6875 -8.421875 -1.25 L -8 -1.25 C -8 -1.53125 -8 -2.359375 -8.359375 -3.078125 L -1.109375 -3.078125 C -0.609375 -3.078125 -0.4375 -3.03125 -0.4375 -1.78125 L -0.4375 -1.328125 L 0 -1.328125 C -0.046875 -1.8125 -0.046875 -3.03125 -0.046875 -3.59375 C -0.046875 -4.15625 -0.046875 -5.375 0 -5.859375 Z M 0 -5.859375 "/>
</g>
<g id="glyph-12-0-5aecf158">
<path d="M -2.390625 -6.390625 C -3.546875 -6.390625 -4.640625 -5.515625 -4.921875 -4.0625 C -5.3125 -5.203125 -6.28125 -6.015625 -7.390625 -6.015625 C -8.546875 -6.015625 -9.328125 -4.78125 -9.328125 -3.4375 C -9.328125 -2.03125 -8.484375 -0.96875 -7.421875 -0.96875 C -6.953125 -0.96875 -6.6875 -1.28125 -6.6875 -1.6875 C -6.6875 -2.109375 -7 -2.390625 -7.40625 -2.390625 C -8.109375 -2.390625 -8.109375 -1.734375 -8.109375 -1.53125 C -8.796875 -1.953125 -8.96875 -2.890625 -8.96875 -3.390625 C -8.96875 -3.96875 -8.671875 -4.734375 -7.40625 -4.734375 C -7.234375 -4.734375 -6.421875 -4.703125 -5.8125 -4.34375 C -5.140625 -3.921875 -5.09375 -3.4375 -5.078125 -3.09375 C -5.0625 -2.984375 -5.046875 -2.640625 -5.046875 -2.546875 C -5.03125 -2.4375 -5.015625 -2.34375 -4.875 -2.34375 C -4.71875 -2.34375 -4.71875 -2.4375 -4.71875 -2.671875 L -4.71875 -3.296875 C -4.71875 -4.4375 -3.765625 -4.953125 -2.390625 -4.953125 C -0.484375 -4.953125 -0.078125 -3.984375 -0.078125 -3.375 C -0.078125 -2.765625 -0.328125 -1.71875 -1.140625 -1.234375 C -1.078125 -1.71875 -1.390625 -2.15625 -1.921875 -2.15625 C -2.421875 -2.15625 -2.703125 -1.78125 -2.703125 -1.375 C -2.703125 -1.03125 -2.5 -0.59375 -1.890625 -0.59375 C -0.609375 -0.59375 0.3125 -1.890625 0.3125 -3.421875 C 0.3125 -5.125 -0.96875 -6.390625 -2.390625 -6.390625 Z M -2.390625 -6.390625 "/>
</g>
<g id="glyph-13-0-5aecf158">
<path d="M -1.46875 -3.78125 L -1.46875 -3.5625 C -1.203125 -3.515625 -0.84375 -3.46875 -0.71875 -3.375 C -0.640625 -3.328125 -0.640625 -2.765625 -0.640625 -2.578125 L -0.640625 -1.0625 L -1.515625 -1.953125 C -2.671875 -3.265625 -3.125 -3.78125 -3.96875 -3.78125 C -4.921875 -3.78125 -5.59375 -3.015625 -5.59375 -2 C -5.59375 -1.046875 -4.828125 -0.421875 -4.078125 -0.421875 C -3.609375 -0.421875 -3.609375 -0.84375 -3.609375 -0.859375 C -3.609375 -1.015625 -3.703125 -1.296875 -4.046875 -1.296875 C -4.265625 -1.296875 -4.484375 -1.15625 -4.484375 -0.859375 C -4.484375 -0.796875 -4.484375 -0.765625 -4.484375 -0.75 C -5.03125 -0.9375 -5.34375 -1.390625 -5.34375 -1.890625 C -5.34375 -2.640625 -4.65625 -3.015625 -3.96875 -3.015625 C -3.296875 -3.015625 -2.625 -2.59375 -2.109375 -2.125 L -0.3125 -0.515625 C -0.21875 -0.421875 -0.203125 -0.421875 0 -0.421875 L 0 -3.53125 Z M -1.46875 -3.78125 "/>
</g>
<g id="glyph-14-0-5aecf158">
<path d="M 7.1875 -3.078125 C 7.1875 -1.140625 5.828125 0.203125 3.9375 0.203125 C 1.671875 0.203125 0.609375 -1.421875 0.609375 -4.515625 C 0.609375 -7.984375 1.84375 -9.921875 4.15625 -9.921875 C 5.671875 -9.921875 6.734375 -8.953125 6.96875 -7.34375 C 6.96875 -7.34375 5.734375 -7.34375 5.734375 -7.34375 C 5.546875 -8.28125 4.9375 -8.828125 4.078125 -8.828125 C 2.65625 -8.828125 1.875 -7.484375 1.859375 -5.0625 C 2.390625 -5.796875 3.15625 -6.171875 4.140625 -6.171875 C 5.921875 -6.171875 7.1875 -4.921875 7.1875 -3.078125 Z M 5.921875 -2.984375 C 5.921875 -4.3125 5.1875 -5.078125 3.984375 -5.078125 C 2.765625 -5.078125 1.9375 -4.28125 1.9375 -3.046875 C 1.9375 -1.78125 2.796875 -0.875 3.953125 -0.875 C 5.078125 -0.875 5.921875 -1.734375 5.921875 -2.984375 Z M 5.921875 -2.984375 "/>
</g>
</g>
</defs>
<rect x="-60" y="-45" width="720" height="540" fill="rgb(100%, 100%, 100%)" fill-opacity="1"/>
<path fill-rule="nonzero" fill="rgb(100%, 100%, 100%)" fill-opacity="1" d="M 53 394 L 290 394 L 290 16 L 53 16 Z M 53 394 "/>
<path fill-rule="nonzero" fill="rgb(100%, 100%, 100%)" fill-opacity="1" d="M 346 394 L 584 394 L 584 16 L 346 16 Z M 346 394 "/>
<path fill="none" stroke-width="1" stroke-linecap="butt" stroke-linejoin="miter" stroke="rgb(0%, 0%, 0%)" stroke-opacity="0.12" stroke-miterlimit="1.154701" d="M 87.710938 394 L 87.710938 16 "/>
<path fill="none" stroke-width="1" stroke-linecap="butt" stroke-linejoin="miter" stroke="rgb(0%, 0%, 0%)" stroke-opacity="0.12" stroke-miterlimit="1.154701" d="M 135.589844 394 L 135.589844 16 "/>
<path fill="none" stroke-width="1" stroke-linecap="butt" stroke-linejoin="miter" stroke="rgb(0%, 0%, 0%)" stroke-opacity="0.12" stroke-miterlimit="1.154701" d="M 183.46875 394 L 183.46875 16 "/>
<path fill="none" stroke-width="1" stroke-linecap="butt" stroke-linejoin="miter" stroke="rgb(0%, 0%, 0%)" stroke-opacity="0.12" stroke-miterlimit="1.154701" d="M 231.347656 394 L 231.347656 16 "/>
<path fill="none" stroke-width="1" stroke-linecap="butt" stroke-linejoin="miter" stroke="rgb(0%, 0%, 0%)" stroke-opacity="0.12" stroke-miterlimit="1.154701" d="M 279.226562 394 L 279.226562 16 "/>
<path fill="none" stroke-width="1" stroke-linecap="butt" stroke-linejoin="miter" stroke="rgb(0%, 0%, 0%)" stroke-opacity="0.12" stroke-miterlimit="1.154701" d="M 53 334.394531 L 290 334.394531 "/>
<path fill="none" stroke-width="1" stroke-linecap="butt" stroke-linejoin="miter" stroke="rgb(0%, 0%, 0%)" stroke-opacity="0.12" stroke-miterlimit="1.154701" d="M 53 249.546875 L 290 249.546875 "/>
<path fill="none" stroke-width="1" stroke-linecap="butt" stroke-linejoin="miter" stroke="rgb(0%, 0%, 0%)" stroke-opacity="0.12" stroke-miterlimit="1.154701" d="M 53 164.695312 L 290 164.695312 "/>
<path fill="none" stroke-width="1" stroke-linecap="butt" stroke-linejoin="miter" stroke="rgb(0%, 0%, 0%)" stroke-opacity="0.12" stroke-miterlimit="1.154701" d="M 53 79.847656 L 290 79.847656 "/>
<path fill="none" stroke-width="1" stroke-linecap="butt" stroke-linejoin="miter" stroke="rgb(0%, 0%, 0%)" stroke-opacity="0.12" stroke-miterlimit="1.154701" d="M 380.859375 394 L 380.859375 16 "/>
<path fill="none" stroke-width="1" stroke-linecap="butt" stroke-linejoin="miter" stroke="rgb(0%, 0%, 0%)" stroke-opacity="0.12" stroke-miterlimit="1.154701" d="M 428.9375 394 L 428.9375 16 "/>
<path fill="none" stroke-width="1" stroke-linecap="butt" stroke-linejoin="miter" stroke="rgb(0%, 0%, 0%)" stroke-opacity="0.12" stroke-miterlimit="1.154701" d="M 477.019531 394 L 477.019531 16 "/>
<path fill="none" stroke-width="1" stroke-linecap="butt" stroke-linejoin="miter" stroke="rgb(0%, 0%, 0%)" stroke-opacity="0.12" stroke-miterlimit="1.154701" d="M 525.101562 394 L 525.101562 16 "/>
<path fill="none" stroke-width="1" stroke-linecap="butt" stroke-linejoin="miter" stroke="rgb(0%, 0%, 0%)" stroke-opacity="0.12" stroke-miterlimit="1.154701" d="M 573.183594 394 L 573.183594 16 "/>
<path fill="none" stroke-width="1" stroke-linecap="butt" stroke-linejoin="miter" stroke="rgb(0%, 0%, 0%)" stroke-opacity="0.12" stroke-miterlimit="1.154701" d="M 346 376.933594 L 584 376.933594 "/>
<path fill="none" stroke-width="1" stroke-linecap="butt" stroke-linejoin="miter" stroke="rgb(0%, 0%, 0%)" stroke-opacity="0.12" stroke-miterlimit="1.154701" d="M 346 321.933594 L 584 321.933594 "/>
<path fill="none" stroke-width="1" stroke-linecap="butt" stroke-linejoin="miter" stroke="rgb(0%, 0%, 0%)" stroke-opacity="0.12" stroke-miterlimit="1.154701" d="M 346 266.933594 L 584 266.933594 "/>
<path fill="none" stroke-width="1" stroke-linecap="butt" stroke-linejoin="miter" stroke="rgb(0%, 0%, 0%)" stroke-opacity="0.12" stroke-miterlimit="1.154701" d="M 346 211.933594 L 584 211.933594 "/>
<path fill="none" stroke-width="1" stroke-linecap="butt" stroke-linejoin="miter" stroke="rgb(0%, 0%, 0%)" stroke-opacity="0.12" stroke-miterlimit="1.154701" d="M 346 156.933594 L 584 156.933594 "/>
<path fill="none" stroke-width="1" stroke-linecap="butt" stroke-linejoin="miter" stroke="rgb(0%, 0%, 0%)" stroke-opacity="0.12" stroke-miterlimit="1.154701" d="M 346 101.933594 L 584 101.933594 "/>
<path fill="none" stroke-width="1" stroke-linecap="butt" stroke-linejoin="miter" stroke="rgb(0%, 0%, 0%)" stroke-opacity="0.12" stroke-miterlimit="1.154701" d="M 346 46.933594 L 584 46.933594 "/>
<g fill="rgb(0%, 0%, 0%)" fill-opacity="1">
<use xlink:href="#glyph-0-0-5aecf158" x="168.280004" y="432.593999"/>
</g>
<g fill="rgb(0%, 0%, 0%)" fill-opacity="1">
<use xlink:href="#glyph-1-0-5aecf158" x="77.982122" y="415.258"/>
<use xlink:href="#glyph-1-1-5aecf158" x="85.766123" y="415.258"/>
<use xlink:href="#glyph-1-2-5aecf158" x="89.658122" y="415.258"/>
</g>
<g fill="rgb(0%, 0%, 0%)" fill-opacity="1">
<use xlink:href="#glyph-1-0-5aecf158" x="125.860915" y="415.258"/>
<use xlink:href="#glyph-1-1-5aecf158" x="133.644915" y="415.258"/>
<use xlink:href="#glyph-1-3-5aecf158" x="137.536915" y="415.258"/>
</g>
<g fill="rgb(0%, 0%, 0%)" fill-opacity="1">
<use xlink:href="#glyph-1-0-5aecf158" x="173.739701" y="415.258"/>
<use xlink:href="#glyph-1-1-5aecf158" x="181.523701" y="415.258"/>
<use xlink:href="#glyph-1-4-5aecf158" x="185.415701" y="415.258"/>
</g>
<g fill="rgb(0%, 0%, 0%)" fill-opacity="1">
<use xlink:href="#glyph-1-0-5aecf158" x="221.618486" y="415.258"/>
<use xlink:href="#glyph-1-1-5aecf158" x="229.402486" y="415.258"/>
<use xlink:href="#glyph-1-5-5aecf158" x="233.294486" y="415.258"/>
</g>
<g fill="rgb(0%, 0%, 0%)" fill-opacity="1">
<use xlink:href="#glyph-1-6-5aecf158" x="269.497271" y="415.258"/>
<use xlink:href="#glyph-1-1-5aecf158" x="277.281271" y="415.258"/>
<use xlink:href="#glyph-1-0-5aecf158" x="281.173271" y="415.258"/>
</g>
<g fill="rgb(0%, 0%, 0%)" fill-opacity="1">
<use xlink:href="#glyph-2-0-5aecf158" x="26.743999" y="231.024853"/>
</g>
<g fill="rgb(0%, 0%, 0%)" fill-opacity="1">
<use xlink:href="#glyph-3-0-5aecf158" x="26.744" y="219.740853"/>
</g>
<g fill="rgb(0%, 0%, 0%)" fill-opacity="1">
<use xlink:href="#glyph-4-0-5aecf158" x="26.744" y="215.036855"/>
</g>
<g fill="rgb(0%, 0%, 0%)" fill-opacity="1">
<use xlink:href="#glyph-5-0-5aecf158" x="26.744001" y="205.113134"/>
</g>
<g fill="rgb(0%, 0%, 0%)" fill-opacity="1">
<use xlink:href="#glyph-6-0-5aecf158" x="26.744002" y="191.421133"/>
</g>
<g fill="rgb(0%, 0%, 0%)" fill-opacity="1">
<use xlink:href="#glyph-7-0-5aecf158" x="26.744002" y="184.421134"/>
</g>
<g fill="rgb(0%, 0%, 0%)" fill-opacity="1">
<use xlink:href="#glyph-1-6-5aecf158" x="35.216001" y="339.496934"/>
</g>
<g fill="rgb(0%, 0%, 0%)" fill-opacity="1">
<use xlink:href="#glyph-1-2-5aecf158" x="35.216001" y="254.648451"/>
</g>
<g fill="rgb(0%, 0%, 0%)" fill-opacity="1">
<use xlink:href="#glyph-1-7-5aecf158" x="35.216001" y="169.799954"/>
</g>
<g fill="rgb(0%, 0%, 0%)" fill-opacity="1">
<use xlink:href="#glyph-1-3-5aecf158" x="35.216001" y="84.951472"/>
</g>
<path fill="none" stroke-width="1.5" stroke-linecap="butt" stroke-linejoin="miter" stroke="rgb(0%, 44.705883%, 69.803923%)" stroke-opacity="1" stroke-miterlimit="2" d="M 63.773438 376.816406 L 68.5625 313.183594 L 73.347656 267.726562 L 78.136719 233.636719 L 82.925781 207.121094 L 87.710938 185.910156 L 92.5 168.554688 L 97.289062 154.089844 L 102.074219 141.851562 L 106.863281 131.363281 L 111.652344 122.273438 L 116.4375 114.316406 L 121.226562 107.300781 L 126.015625 101.0625 L 130.804688 95.476562 L 135.589844 90.453125 L 140.378906 85.910156 L 145.167969 81.777344 L 149.953125 78.003906 L 154.742188 74.546875 L 159.53125 71.363281 L 164.316406 68.425781 L 169.105469 65.707031 L 173.894531 63.183594 L 178.683594 60.832031 L 183.46875 58.636719 L 188.257812 56.582031 L 193.046875 54.660156 L 197.832031 52.851562 L 202.621094 51.148438 L 207.410156 49.546875 L 212.195312 48.03125 L 216.984375 46.597656 L 221.773438 45.238281 L 226.5625 43.949219 L 231.347656 42.726562 L 236.136719 41.5625 L 240.925781 40.453125 L 245.710938 39.398438 L 250.5 38.386719 L 255.289062 37.425781 L 260.074219 36.503906 L 264.863281 35.617188 L 269.652344 34.773438 L 274.4375 33.960938 L 279.226562 33.183594 "/>
<g fill="rgb(0%, 0%, 0%)" fill-opacity="1">
<use xlink:href="#glyph-0-0-5aecf158" x="461.780011" y="432.593999"/>
</g>
<g fill="rgb(0%, 0%, 0%)" fill-opacity="1">
<use xlink:href="#glyph-1-0-5aecf158" x="371.128591" y="415.258"/>
<use xlink:href="#glyph-1-1-5aecf158" x="378.912591" y="415.258"/>
<use xlink:href="#glyph-1-2-5aecf158" x="382.804591" y="415.258"/>
</g>
<g fill="rgb(0%, 0%, 0%)" fill-opacity="1">
<use xlink:href="#glyph-1-0-5aecf158" x="419.209403" y="415.258"/>
<use xlink:href="#glyph-1-1-5aecf158" x="426.993403" y="415.258"/>
<use xlink:href="#glyph-1-3-5aecf158" x="430.885403" y="415.258"/>
</g>
<g fill="rgb(0%, 0%, 0%)" fill-opacity="1">
<use xlink:href="#glyph-1-0-5aecf158" x="467.290214" y="415.258"/>
<use xlink:href="#glyph-1-1-5aecf158" x="475.074215" y="415.258"/>
<use xlink:href="#glyph-1-4-5aecf158" x="478.966214" y="415.258"/>
</g>
<g fill="rgb(0%, 0%, 0%)" fill-opacity="1">
<use xlink:href="#glyph-1-0-5aecf158" x="515.371026" y="415.258"/>
<use xlink:href="#glyph-1-1-5aecf158" x="523.155026" y="415.258"/>
<use xlink:href="#glyph-1-5-5aecf158" x="527.047026" y="415.258"/>
</g>
<g fill="rgb(0%, 0%, 0%)" fill-opacity="1">
<use xlink:href="#glyph-1-6-5aecf158" x="563.451838" y="415.258"/>
<use xlink:href="#glyph-1-1-5aecf158" x="571.235838" y="415.258"/>
<use xlink:href="#glyph-1-0-5aecf158" x="575.127838" y="415.258"/>
</g>
<g fill="rgb(0%, 0%, 0%)" fill-opacity="1">
<use xlink:href="#glyph-8-0-5aecf158" x="319.744009" y="249.091849"/>
</g>
<g fill="rgb(0%, 0%, 0%)" fill-opacity="1">
<use xlink:href="#glyph-9-0-5aecf158" x="319.744009" y="246.095851"/>
</g>
<g fill="rgb(0%, 0%, 0%)" fill-opacity="1">
<use xlink:href="#glyph-10-0-5aecf158" x="319.74401" y="234.811852"/>
</g>
<g fill="rgb(0%, 0%, 0%)" fill-opacity="1">
<use xlink:href="#glyph-9-1-5aecf158" x="319.74401" y="230.107851"/>
</g>
<g fill="rgb(0%, 0%, 0%)" fill-opacity="1">
<use xlink:href="#glyph-11-0-5aecf158" x="319.744011" y="220.184131"/>
<use xlink:href="#glyph-11-1-5aecf158" x="319.744012" y="206.492132"/>
</g>
<g fill="rgb(0%, 0%, 0%)" fill-opacity="1">
<use xlink:href="#glyph-10-1-5aecf158" x="319.744012" y="199.492132"/>
<use xlink:href="#glyph-10-2-5aecf158" x="319.744012" y="191.246134"/>
</g>
<g fill="rgb(0%, 0%, 0%)" fill-opacity="1">
<use xlink:href="#glyph-12-0-5aecf158" x="319.744013" y="177.554133"/>
</g>
<g fill="rgb(0%, 0%, 0%)" fill-opacity="1">
<use xlink:href="#glyph-10-1-5aecf158" x="319.744014" y="170.554135"/>
</g>
<g fill="rgb(0%, 0%, 0%)" fill-opacity="1">
<use xlink:href="#glyph-13-0-5aecf158" x="313.710014" y="165.108136"/>
</g>
<g fill="rgb(0%, 0%, 0%)" fill-opacity="1">
<use xlink:href="#glyph-1-0-5aecf158" x="328.216008" y="382.034815"/>
</g>
<g fill="rgb(0%, 0%, 0%)" fill-opacity="1">
<use xlink:href="#glyph-1-6-5aecf158" x="328.216008" y="327.034821"/>
</g>
<g fill="rgb(0%, 0%, 0%)" fill-opacity="1">
<use xlink:href="#glyph-1-2-5aecf158" x="328.216008" y="272.03482"/>
</g>
<g fill="rgb(0%, 0%, 0%)" fill-opacity="1">
<use xlink:href="#glyph-1-7-5aecf158" x="328.216008" y="217.034818"/>
</g>
<g fill="rgb(0%, 0%, 0%)" fill-opacity="1">
<use xlink:href="#glyph-1-3-5aecf158" x="328.216008" y="162.034817"/>
</g>
<g fill="rgb(0%, 0%, 0%)" fill-opacity="1">
<use xlink:href="#glyph-1-8-5aecf158" x="328.216008" y="107.034816"/>
</g>
<g fill="rgb(0%, 0%, 0%)" fill-opacity="1">
<use xlink:href="#glyph-14-0-5aecf158" x="328.216008" y="52.034814"/>
</g>
<path fill="none" stroke-width="1.5" stroke-linecap="butt" stroke-linejoin="miter" stroke="rgb(0%, 44.705883%, 69.803923%)" stroke-opacity="1" stroke-miterlimit="2" d="M 356.816406 33.183594 L 361.625 208.496094 L 366.433594 295.835938 L 371.242188 340.625 L 376.050781 363.183594 L 380.859375 373.496094 L 385.667969 376.816406 L 390.476562 376.074219 L 395.28125 372.945312 L 400.089844 368.441406 L 404.898438 363.183594 L 409.707031 357.542969 L 414.515625 351.761719 L 419.324219 345.996094 L 424.132812 340.328125 L 428.9375 334.824219 L 433.746094 329.507812 L 438.554688 324.402344 L 443.363281 319.515625 L 448.171875 314.84375 L 452.980469 310.382812 L 457.789062 306.128906 L 462.597656 302.070312 L 467.402344 298.203125 L 472.210938 294.511719 L 477.019531 290.996094 L 481.828125 287.636719 L 486.636719 284.429688 L 491.445312 281.363281 L 496.253906 278.433594 L 501.0625 275.628906 L 505.867188 272.949219 L 510.675781 270.375 L 515.484375 267.914062 L 520.292969 265.546875 L 525.101562 263.28125 L 529.910156 261.101562 L 534.71875 259.003906 L 539.523438 256.988281 L 544.332031 255.050781 L 549.140625 253.183594 L 553.949219 251.382812 L 558.757812 249.644531 L 563.566406 247.972656 L 568.375 246.355469 L 573.183594 244.792969 "/>
<path fill="none" stroke-width="1" stroke-linecap="butt" stroke-linejoin="miter" stroke="rgb(0%, 0%, 0%)" stroke-opacity="1" stroke-miterlimit="1.154701" d="M 87.710938 394.5 L 87.710938 399.5 "/>
<path fill="none" stroke-width="1" stroke-linecap="butt" stroke-linejoin="miter" stroke="rgb(0%, 0%, 0%)" stroke-opacity="1" stroke-miterlimit="1.154701" d="M 135.589844 394.5 L 135.589844 399.5 "/>
<path fill="none" stroke-width="1" stroke-linecap="butt" stroke-linejoin="miter" stroke="rgb(0%, 0%, 0%)" stroke-opacity="1" stroke-miterlimit="1.154701" d="M 183.46875 394.5 L 183.46875 399.5 "/>
<path fill="none" stroke-width="1" stroke-linecap="butt" stroke-linejoin="miter" stroke="rgb(0%, 0%, 0%)" stroke-opacity="1" stroke-miterlimit="1.154701" d="M 231.347656 394.5 L 231.347656 399.5 "/>
<path fill="none" stroke-width="1" stroke-linecap="butt" stroke-linejoin="miter" stroke="rgb(0%, 0%, 0%)" stroke-opacity="1" stroke-miterlimit="1.154701" d="M 279.226562 394.5 L 279.226562 399.5 "/>
<path fill="none" stroke-width="1" stroke-linecap="butt" stroke-linejoin="miter" stroke="rgb(0%, 0%, 0%)" stroke-opacity="1" stroke-miterlimit="1.154701" d="M 52.5 334.394531 L 47.5 334.394531 "/>
<path fill="none" stroke-width="1" stroke-linecap="butt" stroke-linejoin="miter" stroke="rgb(0%, 0%, 0%)" stroke-opacity="1" stroke-miterlimit="1.154701" d="M 52.5 249.546875 L 47.5 249.546875 "/>
<path fill="none" stroke-width="1" stroke-linecap="butt" stroke-linejoin="miter" stroke="rgb(0%, 0%, 0%)" stroke-opacity="1" stroke-miterlimit="1.154701" d="M 52.5 164.695312 L 47.5 164.695312 "/>
<path fill="none" stroke-width="1" stroke-linecap="butt" stroke-linejoin="miter" stroke="rgb(0%, 0%, 0%)" stroke-opacity="1" stroke-miterlimit="1.154701" d="M 52.5 79.847656 L 47.5 79.847656 "/>
<path fill="none" stroke-width="1" stroke-linecap="butt" stroke-linejoin="miter" stroke="rgb(0%, 0%, 0%)" stroke-opacity="1" stroke-miterlimit="1.154701" d="M 380.859375 394.5 L 380.859375 399.5 "/>
<path fill="none" stroke-width="1" stroke-linecap="butt" stroke-linejoin="miter" stroke="rgb(0%, 0%, 0%)" stroke-opacity="1" stroke-miterlimit="1.154701" d="M 428.9375 394.5 L 428.9375 399.5 "/>
<path fill="none" stroke-width="1" stroke-linecap="butt" stroke-linejoin="miter" stroke="rgb(0%, 0%, 0%)" stroke-opacity="1" stroke-miterlimit="1.154701" d="M 477.019531 394.5 L 477.019531 399.5 "/>
<path fill="none" stroke-width="1" stroke-linecap="butt" stroke-linejoin="miter" stroke="rgb(0%, 0%, 0%)" stroke-opacity="1" stroke-miterlimit="1.154701" d="M 525.101562 394.5 L 525.101562 399.5 "/>
<path fill="none" stroke-width="1" stroke-linecap="butt" stroke-linejoin="miter" stroke="rgb(0%, 0%, 0%)" stroke-opacity="1" stroke-miterlimit="1.154701" d="M 573.183594 394.5 L 573.183594 399.5 "/>
<path fill="none" stroke-width="1" stroke-linecap="butt" stroke-linejoin="miter" stroke="rgb(0%, 0%, 0%)" stroke-opacity="1" stroke-miterlimit="1.154701" d="M 345.5 376.933594 L 340.5 376.933594 "/>
<path fill="none" stroke-width="1" stroke-linecap="butt" stroke-linejoin="miter" stroke="rgb(0%, 0%, 0%)" stroke-opacity="1" stroke-miterlimit="1.154701" d="M 345.5 321.933594 L 340.5 321.933594 "/>
<path fill="none" stroke-width="1" stroke-linecap="butt" stroke-linejoin="miter" stroke="rgb(0%, 0%, 0%)" stroke-opacity="1" stroke-miterlimit="1.154701" d="M 345.5 266.933594 L 340.5 266.933594 "/>
<path fill="none" stroke-width="1" stroke-linecap="butt" stroke-linejoin="miter" stroke="rgb(0%, 0%, 0%)" stroke-opacity="1" stroke-miterlimit="1.154701" d="M 345.5 211.933594 L 340.5 211.933594 "/>
<path fill="none" stroke-width="1" stroke-linecap="butt" stroke-linejoin="miter" stroke="rgb(0%, 0%, 0%)" stroke-opacity="1" stroke-miterlimit="1.154701" d="M 345.5 156.933594 L 340.5 156.933594 "/>
<path fill="none" stroke-width="1" stroke-linecap="butt" stroke-linejoin="miter" stroke="rgb(0%, 0%, 0%)" stroke-opacity="1" stroke-miterlimit="1.154701" d="M 345.5 101.933594 L 340.5 101.933594 "/>
<path fill="none" stroke-width="1" stroke-linecap="butt" stroke-linejoin="miter" stroke="rgb(0%, 0%, 0%)" stroke-opacity="1" stroke-miterlimit="1.154701" d="M 345.5 46.933594 L 340.5 46.933594 "/>
<path fill="none" stroke-width="1" stroke-linecap="butt" stroke-linejoin="miter" stroke="rgb(0%, 0%, 0%)" stroke-opacity="1" stroke-miterlimit="1.154701" d="M 52.5 394 L 290.5 394 "/>
<path fill="none" stroke-width="1" stroke-linecap="butt" stroke-linejoin="miter" stroke="rgb(0%, 0%, 0%)" stroke-opacity="1" stroke-miterlimit="1.154701" d="M 53 394.5 L 53 15.5 "/>
<path fill="none" stroke-width="1" stroke-linecap="butt" stroke-linejoin="miter" stroke="rgb(0%, 0%, 0%)" stroke-opacity="1" stroke-miterlimit="1.154701" d="M 52.5 16 L 290.5 16 "/>
<path fill="none" stroke-width="1" stroke-linecap="butt" stroke-linejoin="miter" stroke="rgb(0%, 0%, 0%)" stroke-opacity="1" stroke-miterlimit="1.154701" d="M 290 394.5 L 290 15.5 "/>
<path fill="none" stroke-width="1" stroke-linecap="butt" stroke-linejoin="miter" stroke="rgb(0%, 0%, 0%)" stroke-opacity="1" stroke-miterlimit="1.154701" d="M 345.5 394 L 584.5 394 "/>
<path fill="none" stroke-width="1" stroke-linecap="butt" stroke-linejoin="miter" stroke="rgb(0%, 0%, 0%)" stroke-opacity="1" stroke-miterlimit="1.154701" d="M 346 394.5 L 346 15.5 "/>
<path fill="none" stroke-width="1" stroke-linecap="butt" stroke-linejoin="miter" stroke="rgb(0%, 0%, 0%)" stroke-opacity="1" stroke-miterlimit="1.154701" d="M 345.5 16 L 584.5 16 "/>
<path fill="none" stroke-width="1" stroke-linecap="butt" stroke-linejoin="miter" stroke="rgb(0%, 0%, 0%)" stroke-opacity="1" stroke-miterlimit="1.154701" d="M 584 394.5 L 584 15.5 "/>
</svg>
