<?xml version="1.0" encoding="UTF-8" standalone="no"?>
<!-- Created with Inkscape (http://www.inkscape.org/) -->

<svg
   width="210mm"
   height="57mm"
   viewBox="0 0 210 57"
   version="1.1"
   id="svg1"
   inkscape:version="1.3.2 (091e20e, 2023-11-25)"
   sodipodi:docname="GeneralFiniteVolume02.svg"
   inkscape:export-filename="GeneralFiniteVolume02.png"
   inkscape:export-xdpi="96"
   inkscape:export-ydpi="96"
   xmlns:inkscape="http://www.inkscape.org/namespaces/inkscape"
   xmlns:sodipodi="http://sodipodi.sourceforge.net/DTD/sodipodi-0.dtd"
   xmlns:xlink="http://www.w3.org/1999/xlink"
   xmlns="http://www.w3.org/2000/svg"
   xmlns:svg="http://www.w3.org/2000/svg"
   xmlns:ns2="http://www.iki.fi/pav/software/textext/">
  <sodipodi:namedview
     id="namedview1"
     pagecolor="#ffffff"
     bordercolor="#000000"
     borderopacity="0.25"
     inkscape:showpageshadow="2"
     inkscape:pageopacity="0.0"
     inkscape:pagecheckerboard="0"
     inkscape:deskcolor="#d1d1d1"
     inkscape:document-units="mm"
     inkscape:zoom="0.8038301"
     inkscape:cx="396.22801"
     inkscape:cy="430.43922"
     inkscape:window-width="1392"
     inkscape:window-height="921"
     inkscape:window-x="2040"
     inkscape:window-y="56"
     inkscape:window-maximized="0"
     inkscape:current-layer="layer1"
     showgrid="true"
     showguides="false">
    <inkscape:grid
       id="grid1"
       units="mm"
       originx="0"
       originy="0"
       spacingx="0.99999998"
       spacingy="1"
       empcolor="#0099e5"
       empopacity="0.30196078"
       color="#0099e5"
       opacity="0.14901961"
       empspacing="5"
       dotted="false"
       gridanglex="30"
       gridanglez="30"
       visible="true" />
  </sodipodi:namedview>
  <defs
     id="defs1">
    <linearGradient
       id="linearGradient1"
       inkscape:collect="always">
      <stop
         style="stop-color:#1a1a1a;stop-opacity:1;"
         offset="0"
         id="stop1" />
      <stop
         style="stop-color:#1a1a1a;stop-opacity:0;"
         offset="1"
         id="stop2" />
    </linearGradient>
    <inkscape:path-effect
       effect="spiro"
       id="path-effect13"
       is_visible="true"
       lpeversion="1" />
    <inkscape:path-effect
       effect="spiro"
       id="path-effect3"
       is_visible="true"
       lpeversion="1" />
    <inkscape:path-effect
       effect="spiro"
       id="path-effect2"
       is_visible="true"
       lpeversion="1" />
    <inkscape:path-effect
       effect="spiro"
       id="path-effect1"
       is_visible="true"
       lpeversion="1" />
    <inkscape:path-effect
       effect="spiro"
       id="path-effect3-5"
       is_visible="true"
       lpeversion="1" />
    <inkscape:path-effect
       effect="spiro"
       id="path-effect3-5-6"
       is_visible="true"
       lpeversion="1" />
    <inkscape:path-effect
       effect="spiro"
       id="path-effect3-5-6-6"
       is_visible="true"
       lpeversion="1" />
    <g
       id="id-b59c6df5-425c-48ba-8ac1-dce96b1b2db6-8">
      <g
         id="id-cec03193-081c-40a3-99b5-64c8d820613a-6">
        <path
           d="m 4.359375,-6.671875 c 0,-0.03125 0.03125,-0.140625 0.03125,-0.140625 0,-0.015625 0,-0.109375 -0.125,-0.109375 -0.09375,0 -0.109375,0.03125 -0.15625,0.203125 L 3.53125,-4.421875 c -1.578125,0.0625 -3.046875,1.375 -3.046875,2.734375 0,0.953125 0.703125,1.734375 1.921875,1.8125 C 2.328125,0.421875 2.25,0.75 2.171875,1.0625 c -0.125,0.46875 -0.21875,0.84375 -0.21875,0.875 0,0.09375 0.078125,0.109375 0.125,0.109375 C 2.125,2.046875 2.140625,2.03125 2.171875,2 2.1875,1.984375 2.25,1.75 2.28125,1.609375 L 2.65625,0.125 c 1.609375,-0.0625 3.0625,-1.40625 3.0625,-2.734375 0,-0.796875 -0.53125,-1.703125 -1.921875,-1.8125 z m -1.90625,6.578125 c -0.59375,-0.03125 -1.3125,-0.390625 -1.3125,-1.375 0,-1.203125 0.859375,-2.59375 2.34375,-2.734375 z m 1.28125,-4.109375 c 0.765625,0.046875 1.328125,0.5 1.328125,1.375 0,1.1875 -0.859375,2.609375 -2.34375,2.734375 z m 0,0"
           id="id-2184df09-779a-494a-948d-f9bbcbd9acd4-2" />
      </g>
      <g
         id="id-0b6f600e-74e6-489c-ad53-3a1f81b521cc-5">
        <path
           d="m 2.375,-2.15625 h 1.265625 c 1.171875,0 2.171875,-0.75 2.171875,-1.515625 0,-0.59375 -0.578125,-1.09375 -1.53125,-1.09375 h -2.4375 c -0.140625,0 -0.21875,0 -0.21875,0.15625 0,0.09375 0.078125,0.09375 0.234375,0.09375 0.109375,0 0.140625,0 0.265625,0.015625 0.140625,0.015625 0.140625,0.03125 0.140625,0.109375 0,0 0,0.046875 -0.015625,0.140625 L 1.328125,-0.578125 C 1.25,-0.296875 1.25,-0.25 0.703125,-0.25 0.578125,-0.25 0.5,-0.25 0.5,-0.09375 0.5,-0.09375 0.5,0 0.609375,0 0.8125,0 1.3125,-0.03125 1.515625,-0.03125 1.625,-0.03125 1.875,-0.03125 2,-0.015625 2.125,-0.015625 2.3125,0 2.4375,0 2.484375,0 2.578125,0 2.578125,-0.15625 2.578125,-0.25 2.5,-0.25 2.359375,-0.25 c 0,0 -0.140625,0 -0.265625,-0.015625 C 1.9375,-0.28125 1.9375,-0.296875 1.9375,-0.375 c 0,0 0,-0.046875 0.03125,-0.140625 z m 0.5,-2.109375 c 0.0625,-0.21875 0.0625,-0.25 0.359375,-0.25 h 0.8125 c 0.65625,0 1.046875,0.203125 1.046875,0.703125 0,0.203125 -0.078125,0.765625 -0.421875,1.078125 -0.25,0.21875 -0.65625,0.34375 -1.15625,0.34375 H 2.40625 Z m 0,0"
           id="id-5524b715-b8cc-4534-88ee-e0980c945cb4-1" />
      </g>
    </g>
    <g
       id="id-b59c6df5-425c-48ba-8ac1-dce96b1b2db6-1">
      <g
         id="id-cec03193-081c-40a3-99b5-64c8d820613a-5">
        <path
           d="m 4.359375,-6.671875 c 0,-0.03125 0.03125,-0.140625 0.03125,-0.140625 0,-0.015625 0,-0.109375 -0.125,-0.109375 -0.09375,0 -0.109375,0.03125 -0.15625,0.203125 L 3.53125,-4.421875 c -1.578125,0.0625 -3.046875,1.375 -3.046875,2.734375 0,0.953125 0.703125,1.734375 1.921875,1.8125 C 2.328125,0.421875 2.25,0.75 2.171875,1.0625 c -0.125,0.46875 -0.21875,0.84375 -0.21875,0.875 0,0.09375 0.078125,0.109375 0.125,0.109375 C 2.125,2.046875 2.140625,2.03125 2.171875,2 2.1875,1.984375 2.25,1.75 2.28125,1.609375 L 2.65625,0.125 c 1.609375,-0.0625 3.0625,-1.40625 3.0625,-2.734375 0,-0.796875 -0.53125,-1.703125 -1.921875,-1.8125 z m -1.90625,6.578125 c -0.59375,-0.03125 -1.3125,-0.390625 -1.3125,-1.375 0,-1.203125 0.859375,-2.59375 2.34375,-2.734375 z m 1.28125,-4.109375 c 0.765625,0.046875 1.328125,0.5 1.328125,1.375 0,1.1875 -0.859375,2.609375 -2.34375,2.734375 z m 0,0"
           id="id-2184df09-779a-494a-948d-f9bbcbd9acd4-5" />
      </g>
      <g
         id="id-0b6f600e-74e6-489c-ad53-3a1f81b521cc-8">
        <path
           d="m 2.375,-2.15625 h 1.265625 c 1.171875,0 2.171875,-0.75 2.171875,-1.515625 0,-0.59375 -0.578125,-1.09375 -1.53125,-1.09375 h -2.4375 c -0.140625,0 -0.21875,0 -0.21875,0.15625 0,0.09375 0.078125,0.09375 0.234375,0.09375 0.109375,0 0.140625,0 0.265625,0.015625 0.140625,0.015625 0.140625,0.03125 0.140625,0.109375 0,0 0,0.046875 -0.015625,0.140625 L 1.328125,-0.578125 C 1.25,-0.296875 1.25,-0.25 0.703125,-0.25 0.578125,-0.25 0.5,-0.25 0.5,-0.09375 0.5,-0.09375 0.5,0 0.609375,0 0.8125,0 1.3125,-0.03125 1.515625,-0.03125 1.625,-0.03125 1.875,-0.03125 2,-0.015625 2.125,-0.015625 2.3125,0 2.4375,0 2.484375,0 2.578125,0 2.578125,-0.15625 2.578125,-0.25 2.5,-0.25 2.359375,-0.25 c 0,0 -0.140625,0 -0.265625,-0.015625 C 1.9375,-0.28125 1.9375,-0.296875 1.9375,-0.375 c 0,0 0,-0.046875 0.03125,-0.140625 z m 0.5,-2.109375 c 0.0625,-0.21875 0.0625,-0.25 0.359375,-0.25 h 0.8125 c 0.65625,0 1.046875,0.203125 1.046875,0.703125 0,0.203125 -0.078125,0.765625 -0.421875,1.078125 -0.25,0.21875 -0.65625,0.34375 -1.15625,0.34375 H 2.40625 Z m 0,0"
           id="id-5524b715-b8cc-4534-88ee-e0980c945cb4-5" />
      </g>
    </g>
    <g
       id="id-a7b6312e-37be-4683-9828-f060e2c6d731-7">
      <g
         id="id-25aad59f-84f4-49af-afc1-607ae9e15284-5">
        <path
           d="m 4.359375,-6.671875 c 0,-0.03125 0.03125,-0.140625 0.03125,-0.140625 0,-0.015625 0,-0.109375 -0.125,-0.109375 -0.09375,0 -0.109375,0.03125 -0.15625,0.203125 L 3.53125,-4.421875 c -1.578125,0.0625 -3.046875,1.375 -3.046875,2.734375 0,0.953125 0.703125,1.734375 1.921875,1.8125 C 2.328125,0.421875 2.25,0.75 2.171875,1.0625 c -0.125,0.46875 -0.21875,0.84375 -0.21875,0.875 0,0.09375 0.078125,0.109375 0.125,0.109375 C 2.125,2.046875 2.140625,2.03125 2.171875,2 2.1875,1.984375 2.25,1.75 2.28125,1.609375 L 2.65625,0.125 c 1.609375,-0.0625 3.0625,-1.40625 3.0625,-2.734375 0,-0.796875 -0.53125,-1.703125 -1.921875,-1.8125 z m -1.90625,6.578125 c -0.59375,-0.03125 -1.3125,-0.390625 -1.3125,-1.375 0,-1.203125 0.859375,-2.59375 2.34375,-2.734375 z m 1.28125,-4.109375 c 0.765625,0.046875 1.328125,0.5 1.328125,1.375 0,1.1875 -0.859375,2.609375 -2.34375,2.734375 z m 0,0"
           id="id-9ab1c53c-5ce4-4c4b-8eaa-78089fcaf39d-3" />
      </g>
      <g
         id="id-b93fdc9d-7daa-483c-9863-2910d30d4e67-9">
        <path
           d="m 7.21875,-3.9375 0.125,-0.1875 C 7.484375,-4.3125 7.65625,-4.484375 8,-4.515625 c 0.078125,0 0.15625,0 0.15625,-0.140625 0,-0.046875 -0.03125,-0.109375 -0.09375,-0.109375 -0.15625,0 -0.359375,0.03125 -0.53125,0.03125 -0.234375,0 -0.546875,-0.03125 -0.765625,-0.03125 -0.046875,0 -0.15625,0 -0.15625,0.15625 0,0.09375 0.09375,0.09375 0.125,0.09375 0.15625,0.015625 0.390625,0.0625 0.390625,0.25 0,0.078125 -0.078125,0.203125 -0.109375,0.25 l -1.96875,3.234375 -0.375,-3.53125 c 0,-0.1875 0.40625,-0.203125 0.484375,-0.203125 0.09375,0 0.1875,0 0.1875,-0.140625 0,-0.015625 0,-0.109375 -0.125,-0.109375 -0.125,0 -0.296875,0.015625 -0.421875,0.03125 -0.140625,0 -0.328125,0 -0.46875,0 -0.15625,0 -0.5625,-0.03125 -0.71875,-0.03125 -0.046875,0 -0.140625,0 -0.140625,0.15625 0,0.09375 0.078125,0.09375 0.171875,0.09375 0.296875,0 0.34375,0.0625 0.359375,0.125 0,0.046875 0.015625,0.234375 0.046875,0.453125 L 2.125,-0.78125 1.765625,-4.203125 C 1.765625,-4.234375 1.75,-4.296875 1.75,-4.3125 c 0,-0.203125 0.4375,-0.203125 0.484375,-0.203125 0.09375,0 0.1875,0 0.1875,-0.140625 0,-0.03125 -0.015625,-0.109375 -0.109375,-0.109375 -0.203125,0 -0.703125,0.03125 -0.890625,0.03125 -0.234375,0 -0.53125,-0.03125 -0.734375,-0.03125 -0.078125,0 -0.140625,0.03125 -0.140625,0.15625 0,0.09375 0.078125,0.09375 0.1875,0.09375 0.328125,0 0.328125,0.046875 0.359375,0.21875 l 0.453125,4.25 c 0.015625,0.140625 0.03125,0.1875 0.15625,0.1875 C 1.8125,0.140625 1.875,0.078125 1.90625,0 l 2.171875,-3.578125 0.390625,3.53125 c 0.015625,0.15625 0.046875,0.1875 0.15625,0.1875 0.109375,0 0.15625,-0.0625 0.203125,-0.140625 z m 0,0"
           id="id-8aa555d1-45db-414c-98c5-dbf3d5594256-0" />
      </g>
    </g>
    <g
       id="id-d1133044-e45f-4a13-8372-5ad3b5ce9763-9">
      <g
         id="id-13dd0be5-9632-45a9-bfc5-e31869f8bdd2-5">
        <path
           d="m 1.859375,-2.296875 c 0.296875,0 1.03125,-0.03125 1.53125,-0.234375 0.703125,-0.296875 0.75,-0.890625 0.75,-1.03125 0,-0.4375 -0.375,-0.84375 -1.0625,-0.84375 -1.109375,0 -2.625,0.96875 -2.625,2.71875 0,1.015625 0.59375,1.796875 1.578125,1.796875 1.421875,0 2.25,-1.0625 2.25,-1.171875 0,-0.0625 -0.046875,-0.140625 -0.109375,-0.140625 -0.0625,0 -0.078125,0.03125 -0.140625,0.109375 -0.78125,0.984375 -1.875,0.984375 -1.984375,0.984375 -0.78125,0 -0.875,-0.84375 -0.875,-1.15625 0,-0.125 0.015625,-0.421875 0.15625,-1.03125 z m -0.46875,-0.21875 C 1.78125,-4.03125 2.8125,-4.1875 3.078125,-4.1875 c 0.453125,0 0.734375,0.296875 0.734375,0.625 0,1.046875 -1.59375,1.046875 -2.015625,1.046875 z m 0,0"
           id="id-12efc018-9b77-4dc2-b9e6-650811f5d221-9" />
      </g>
    </g>
    <inkscape:path-effect
       effect="spiro"
       id="path-effect13-8"
       is_visible="true"
       lpeversion="1" />
    <g
       id="id-e597ad15-1a20-4e6c-bca1-42ca2896f76a-2">
      <g
         id="id-2ff5e3d7-b9b8-4711-8932-ced7e5b9f159-4">
        <path
           d="m 4.84375,-3.796875 c 0.046875,-0.140625 0.046875,-0.15625 0.046875,-0.234375 0,-0.171875 -0.140625,-0.265625 -0.296875,-0.265625 -0.09375,0 -0.25,0.0625 -0.34375,0.203125 -0.015625,0.0625 -0.109375,0.359375 -0.140625,0.546875 -0.078125,0.25 -0.140625,0.53125 -0.203125,0.796875 l -0.453125,1.796875 c -0.03125,0.140625 -0.46875,0.84375 -1.125,0.84375 -0.5,0 -0.609375,-0.4375 -0.609375,-0.8125 C 1.71875,-1.375 1.890625,-2 2.21875,-2.875 2.375,-3.28125 2.421875,-3.390625 2.421875,-3.59375 c 0,-0.4375 -0.3125,-0.8125 -0.8125,-0.8125 -0.953125,0 -1.3125,1.453125 -1.3125,1.53125 0,0.109375 0.09375,0.109375 0.109375,0.109375 0.109375,0 0.109375,-0.03125 0.15625,-0.1875 0.28125,-0.9375 0.671875,-1.234375 1.015625,-1.234375 0.078125,0 0.25,0 0.25,0.3125 0,0.25 -0.109375,0.515625 -0.171875,0.703125 -0.40625,1.0625 -0.578125,1.625 -0.578125,2.09375 0,0.890625 0.625,1.1875 1.21875,1.1875 0.390625,0 0.71875,-0.171875 1,-0.453125 -0.125,0.515625 -0.25,1.015625 -0.640625,1.546875 -0.265625,0.328125 -0.640625,0.625 -1.09375,0.625 -0.140625,0 -0.59375,-0.03125 -0.765625,-0.421875 0.15625,0 0.296875,0 0.421875,-0.125 C 1.328125,1.203125 1.421875,1.0625 1.421875,0.875 1.421875,0.5625 1.15625,0.53125 1.0625,0.53125 0.828125,0.53125 0.5,0.6875 0.5,1.171875 c 0,0.5 0.4375,0.875 1.0625,0.875 1.015625,0 2.046875,-0.90625 2.328125,-2.03125 z m 0,0"
           id="id-b845f64f-8d6e-4a9c-9c2a-1624e3a7b5ec-7" />
      </g>
      <g
         id="id-e9f74503-7ffd-4f8e-a716-81d439bbca22-4">
        <path
           d="m 7.21875,-3.9375 0.125,-0.1875 C 7.484375,-4.3125 7.65625,-4.484375 8,-4.515625 c 0.078125,0 0.15625,0 0.15625,-0.140625 0,-0.046875 -0.03125,-0.109375 -0.09375,-0.109375 -0.15625,0 -0.359375,0.03125 -0.53125,0.03125 -0.234375,0 -0.546875,-0.03125 -0.765625,-0.03125 -0.046875,0 -0.15625,0 -0.15625,0.15625 0,0.09375 0.09375,0.09375 0.125,0.09375 0.15625,0.015625 0.390625,0.0625 0.390625,0.25 0,0.078125 -0.078125,0.203125 -0.109375,0.25 l -1.96875,3.234375 -0.375,-3.53125 c 0,-0.1875 0.40625,-0.203125 0.484375,-0.203125 0.09375,0 0.1875,0 0.1875,-0.140625 0,-0.015625 0,-0.109375 -0.125,-0.109375 -0.125,0 -0.296875,0.015625 -0.421875,0.03125 -0.140625,0 -0.328125,0 -0.46875,0 -0.15625,0 -0.5625,-0.03125 -0.71875,-0.03125 -0.046875,0 -0.140625,0 -0.140625,0.15625 0,0.09375 0.078125,0.09375 0.171875,0.09375 0.296875,0 0.34375,0.0625 0.359375,0.125 0,0.046875 0.015625,0.234375 0.046875,0.453125 L 2.125,-0.78125 1.765625,-4.203125 C 1.765625,-4.234375 1.75,-4.296875 1.75,-4.3125 c 0,-0.203125 0.4375,-0.203125 0.484375,-0.203125 0.09375,0 0.1875,0 0.1875,-0.140625 0,-0.03125 -0.015625,-0.109375 -0.109375,-0.109375 -0.203125,0 -0.703125,0.03125 -0.890625,0.03125 -0.234375,0 -0.53125,-0.03125 -0.734375,-0.03125 -0.078125,0 -0.140625,0.03125 -0.140625,0.15625 0,0.09375 0.078125,0.09375 0.1875,0.09375 0.328125,0 0.328125,0.046875 0.359375,0.21875 l 0.453125,4.25 c 0.015625,0.140625 0.03125,0.1875 0.15625,0.1875 C 1.8125,0.140625 1.875,0.078125 1.90625,0 l 2.171875,-3.578125 0.390625,3.53125 c 0.015625,0.15625 0.046875,0.1875 0.15625,0.1875 0.109375,0 0.15625,-0.0625 0.203125,-0.140625 z m 0,0"
           id="id-ff5f8492-a80c-4d71-a3d5-7a9f06bdff47-1" />
      </g>
    </g>
    <inkscape:path-effect
       effect="spiro"
       id="path-effect13-8-7"
       is_visible="true"
       lpeversion="1" />
    <g
       id="id-3e7dad46-54dd-4016-ac59-013f1de7ef21-6">
      <g
         id="id-89439adf-9f81-4425-a278-bee77e307abf-3">
        <path
           d="m 4.84375,-3.796875 c 0.046875,-0.140625 0.046875,-0.15625 0.046875,-0.234375 0,-0.171875 -0.140625,-0.265625 -0.296875,-0.265625 -0.09375,0 -0.25,0.0625 -0.34375,0.203125 -0.015625,0.0625 -0.109375,0.359375 -0.140625,0.546875 -0.078125,0.25 -0.140625,0.53125 -0.203125,0.796875 l -0.453125,1.796875 c -0.03125,0.140625 -0.46875,0.84375 -1.125,0.84375 -0.5,0 -0.609375,-0.4375 -0.609375,-0.8125 C 1.71875,-1.375 1.890625,-2 2.21875,-2.875 2.375,-3.28125 2.421875,-3.390625 2.421875,-3.59375 c 0,-0.4375 -0.3125,-0.8125 -0.8125,-0.8125 -0.953125,0 -1.3125,1.453125 -1.3125,1.53125 0,0.109375 0.09375,0.109375 0.109375,0.109375 0.109375,0 0.109375,-0.03125 0.15625,-0.1875 0.28125,-0.9375 0.671875,-1.234375 1.015625,-1.234375 0.078125,0 0.25,0 0.25,0.3125 0,0.25 -0.109375,0.515625 -0.171875,0.703125 -0.40625,1.0625 -0.578125,1.625 -0.578125,2.09375 0,0.890625 0.625,1.1875 1.21875,1.1875 0.390625,0 0.71875,-0.171875 1,-0.453125 -0.125,0.515625 -0.25,1.015625 -0.640625,1.546875 -0.265625,0.328125 -0.640625,0.625 -1.09375,0.625 -0.140625,0 -0.59375,-0.03125 -0.765625,-0.421875 0.15625,0 0.296875,0 0.421875,-0.125 C 1.328125,1.203125 1.421875,1.0625 1.421875,0.875 1.421875,0.5625 1.15625,0.53125 1.0625,0.53125 0.828125,0.53125 0.5,0.6875 0.5,1.171875 c 0,0.5 0.4375,0.875 1.0625,0.875 1.015625,0 2.046875,-0.90625 2.328125,-2.03125 z m 0,0"
           id="id-dc41f7e7-4928-4acc-9fb7-2926719dfda6-4" />
      </g>
      <g
         id="id-90652cb1-9fea-4230-b41b-a8b8bbffc0c0-0">
        <path
           d="m 2.375,-2.15625 h 1.265625 c 1.171875,0 2.171875,-0.75 2.171875,-1.515625 0,-0.59375 -0.578125,-1.09375 -1.53125,-1.09375 h -2.4375 c -0.140625,0 -0.21875,0 -0.21875,0.15625 0,0.09375 0.078125,0.09375 0.234375,0.09375 0.109375,0 0.140625,0 0.265625,0.015625 0.140625,0.015625 0.140625,0.03125 0.140625,0.109375 0,0 0,0.046875 -0.015625,0.140625 L 1.328125,-0.578125 C 1.25,-0.296875 1.25,-0.25 0.703125,-0.25 0.578125,-0.25 0.5,-0.25 0.5,-0.09375 0.5,-0.09375 0.5,0 0.609375,0 0.8125,0 1.3125,-0.03125 1.515625,-0.03125 1.625,-0.03125 1.875,-0.03125 2,-0.015625 2.125,-0.015625 2.3125,0 2.4375,0 2.484375,0 2.578125,0 2.578125,-0.15625 2.578125,-0.25 2.5,-0.25 2.359375,-0.25 c 0,0 -0.140625,0 -0.265625,-0.015625 C 1.9375,-0.28125 1.9375,-0.296875 1.9375,-0.375 c 0,0 0,-0.046875 0.03125,-0.140625 z m 0.5,-2.109375 c 0.0625,-0.21875 0.0625,-0.25 0.359375,-0.25 h 0.8125 c 0.65625,0 1.046875,0.203125 1.046875,0.703125 0,0.203125 -0.078125,0.765625 -0.421875,1.078125 -0.25,0.21875 -0.65625,0.34375 -1.15625,0.34375 H 2.40625 Z m 0,0"
           id="id-8edc58c6-959a-475c-a4f8-3afc8567860f-6" />
      </g>
    </g>
    <linearGradient
       inkscape:collect="always"
       xlink:href="#linearGradient1"
       id="linearGradient2"
       x1="20.161715"
       y1="28.61134"
       x2="0.16171405"
       y2="28.61134"
       gradientUnits="userSpaceOnUse" />
  </defs>
  <g
     inkscape:label="Layer 1"
     inkscape:groupmode="layer"
     id="layer1">
    <path
       style="fill:#ffffff;stroke:#000000;stroke-width:1.814;stroke-dasharray:none;stroke-opacity:1"
       d="M 13.031026,67.661096 H 188.94988"
       id="path2"
       inkscape:path-effect="#path-effect2"
       inkscape:original-d="m 13.031026,67.661096 c 58.639619,0 117.279234,0 175.918854,0"
       transform="matrix(1.056777,0,0,1,3.9334555,-42.708601)" />
    <path
       style="fill:#ffffff;stroke:#000000;stroke-width:1.814;stroke-dasharray:none;stroke-opacity:1"
       d="M 15,64.999996 V 79.999998"
       id="path3"
       transform="matrix(1,0,0,3.3333328,3.9034074,-211.66661)"
       inkscape:original-d="m 15,64.999996 c 0,5.000001 0,10.000001 0,15.000002"
       inkscape:path-effect="#path-effect3" />
    <path
       style="fill:#ffffff;stroke:#000000;stroke-width:1.814;stroke-dasharray:none;stroke-opacity:1"
       d="M 15,64.999996 V 79.999998"
       id="path3-5"
       inkscape:path-effect="#path-effect3-5"
       inkscape:original-d="m 15,64.999996 c 0,5.000001 0,10.000001 0,15.000002"
       transform="matrix(1,0,0,0.66666658,54.291372,25.766597)" />
    <path
       style="fill:#ffffff;stroke:#000000;stroke-width:1.814;stroke-dasharray:none;stroke-opacity:1"
       d="M 15,64.999996 V 79.999998"
       id="path3-5-9"
       inkscape:path-effect="#path-effect3-5-6"
       inkscape:original-d="m 15,64.999996 c 0,5.000001 0,10.000001 0,15.000002"
       transform="matrix(1,0,0,0.66666658,188.61134,-23.002997)" />
    <path
       style="fill:#ffffff;stroke:#000000;stroke-width:1.814;stroke-dasharray:none;stroke-opacity:1"
       d="M 15,64.999996 V 79.999998"
       id="path3-5-9-0"
       inkscape:path-effect="#path-effect3-5-6-6"
       inkscape:original-d="m 15,64.999996 c 0,5.000001 0,10.000001 0,15.000002"
       transform="matrix(1,0,0,0.66666658,69.319501,-23.333325)" />
    <circle
       style="fill:#1a1a1a;stroke:none;stroke-width:2.86266;stroke-dasharray:none;stroke-opacity:1"
       id="path4"
       cx="91.645767"
       cy="79.099922"
       r="3.6113405" />
    <circle
       style="fill:#1a1a1a;stroke:none;stroke-width:2.86266;stroke-dasharray:none;stroke-opacity:1"
       id="path4-5"
       cx="52.691021"
       cy="24.801161"
       r="3.6113405" />
    <circle
       style="fill:#1a1a1a;stroke:none;stroke-width:2.86266;stroke-dasharray:none;stroke-opacity:1"
       id="path4-5-0"
       cx="142.48283"
       cy="24.801161"
       r="3.6113405" />
    <g
       transform="matrix(1.04125,0,0,1.04125,45.232638,30.737253)"
       ns2:version="1.10.2"
       ns2:texconverter="pdflatex"
       ns2:pdfconverter="inkscape"
       ns2:text="$\\phi_P$"
       ns2:preamble="/Users/asho/Library/Application Support/org.inkscape.Inkscape/config/inkscape/extensions/textext/default_packages.tex"
       ns2:scale="2.951560754922359"
       ns2:alignment="middle center"
       ns2:stroke-to-path="0"
       ns2:inkscapeversion="1.3.2"
       id="g5306"
       ns2:jacobian_sqrt="1.04125">
      <defs
         id="id-a2d534e0-2c68-458c-89ae-aba3ad3bb3f3">
        <g
           id="id-b59c6df5-425c-48ba-8ac1-dce96b1b2db6">
          <g
             id="id-cec03193-081c-40a3-99b5-64c8d820613a">
            <path
               d="m 4.359375,-6.671875 c 0,-0.03125 0.03125,-0.140625 0.03125,-0.140625 0,-0.015625 0,-0.109375 -0.125,-0.109375 -0.09375,0 -0.109375,0.03125 -0.15625,0.203125 L 3.53125,-4.421875 c -1.578125,0.0625 -3.046875,1.375 -3.046875,2.734375 0,0.953125 0.703125,1.734375 1.921875,1.8125 C 2.328125,0.421875 2.25,0.75 2.171875,1.0625 c -0.125,0.46875 -0.21875,0.84375 -0.21875,0.875 0,0.09375 0.078125,0.109375 0.125,0.109375 C 2.125,2.046875 2.140625,2.03125 2.171875,2 2.1875,1.984375 2.25,1.75 2.28125,1.609375 L 2.65625,0.125 c 1.609375,-0.0625 3.0625,-1.40625 3.0625,-2.734375 0,-0.796875 -0.53125,-1.703125 -1.921875,-1.8125 z m -1.90625,6.578125 c -0.59375,-0.03125 -1.3125,-0.390625 -1.3125,-1.375 0,-1.203125 0.859375,-2.59375 2.34375,-2.734375 z m 1.28125,-4.109375 c 0.765625,0.046875 1.328125,0.5 1.328125,1.375 0,1.1875 -0.859375,2.609375 -2.34375,2.734375 z m 0,0"
               id="id-2184df09-779a-494a-948d-f9bbcbd9acd4" />
          </g>
          <g
             id="id-0b6f600e-74e6-489c-ad53-3a1f81b521cc">
            <path
               d="m 2.375,-2.15625 h 1.265625 c 1.171875,0 2.171875,-0.75 2.171875,-1.515625 0,-0.59375 -0.578125,-1.09375 -1.53125,-1.09375 h -2.4375 c -0.140625,0 -0.21875,0 -0.21875,0.15625 0,0.09375 0.078125,0.09375 0.234375,0.09375 0.109375,0 0.140625,0 0.265625,0.015625 0.140625,0.015625 0.140625,0.03125 0.140625,0.109375 0,0 0,0.046875 -0.015625,0.140625 L 1.328125,-0.578125 C 1.25,-0.296875 1.25,-0.25 0.703125,-0.25 0.578125,-0.25 0.5,-0.25 0.5,-0.09375 0.5,-0.09375 0.5,0 0.609375,0 0.8125,0 1.3125,-0.03125 1.515625,-0.03125 1.625,-0.03125 1.875,-0.03125 2,-0.015625 2.125,-0.015625 2.3125,0 2.4375,0 2.484375,0 2.578125,0 2.578125,-0.15625 2.578125,-0.25 2.5,-0.25 2.359375,-0.25 c 0,0 -0.140625,0 -0.265625,-0.015625 C 1.9375,-0.28125 1.9375,-0.296875 1.9375,-0.375 c 0,0 0,-0.046875 0.03125,-0.140625 z m 0.5,-2.109375 c 0.0625,-0.21875 0.0625,-0.25 0.359375,-0.25 h 0.8125 c 0.65625,0 1.046875,0.203125 1.046875,0.703125 0,0.203125 -0.078125,0.765625 -0.421875,1.078125 -0.25,0.21875 -0.65625,0.34375 -1.15625,0.34375 H 2.40625 Z m 0,0"
               id="id-5524b715-b8cc-4534-88ee-e0980c945cb4" />
          </g>
        </g>
      </defs>
      <g
         fill="#000000"
         fill-opacity="1"
         id="id-9c336b7a-7c64-4da3-beba-9e1ff49517b8"
         transform="translate(-149.196,-127.843)">
        <g
           transform="translate(148.712,134.765)"
           id="g3320">
          <path
             d="m 4.359375,-6.671875 c 0,-0.03125 0.03125,-0.140625 0.03125,-0.140625 0,-0.015625 0,-0.109375 -0.125,-0.109375 -0.09375,0 -0.109375,0.03125 -0.15625,0.203125 L 3.53125,-4.421875 c -1.578125,0.0625 -3.046875,1.375 -3.046875,2.734375 0,0.953125 0.703125,1.734375 1.921875,1.8125 C 2.328125,0.421875 2.25,0.75 2.171875,1.0625 c -0.125,0.46875 -0.21875,0.84375 -0.21875,0.875 0,0.09375 0.078125,0.109375 0.125,0.109375 C 2.125,2.046875 2.140625,2.03125 2.171875,2 2.1875,1.984375 2.25,1.75 2.28125,1.609375 L 2.65625,0.125 c 1.609375,-0.0625 3.0625,-1.40625 3.0625,-2.734375 0,-0.796875 -0.53125,-1.703125 -1.921875,-1.8125 z m -1.90625,6.578125 c -0.59375,-0.03125 -1.3125,-0.390625 -1.3125,-1.375 0,-1.203125 0.859375,-2.59375 2.34375,-2.734375 z m 1.28125,-4.109375 c 0.765625,0.046875 1.328125,0.5 1.328125,1.375 0,1.1875 -0.859375,2.609375 -2.34375,2.734375 z m 0,0"
             id="id-81059742-3aa8-4331-82be-4fbd23ae5dc8" />
        </g>
      </g>
      <g
         fill="#000000"
         fill-opacity="1"
         id="id-cffa9402-4e69-45d8-9435-804afbb27281"
         transform="translate(-149.196,-127.843)">
        <g
           transform="translate(154.648,136.259)"
           id="g517">
          <path
             d="m 2.375,-2.15625 h 1.265625 c 1.171875,0 2.171875,-0.75 2.171875,-1.515625 0,-0.59375 -0.578125,-1.09375 -1.53125,-1.09375 h -2.4375 c -0.140625,0 -0.21875,0 -0.21875,0.15625 0,0.09375 0.078125,0.09375 0.234375,0.09375 0.109375,0 0.140625,0 0.265625,0.015625 0.140625,0.015625 0.140625,0.03125 0.140625,0.109375 0,0 0,0.046875 -0.015625,0.140625 L 1.328125,-0.578125 C 1.25,-0.296875 1.25,-0.25 0.703125,-0.25 0.578125,-0.25 0.5,-0.25 0.5,-0.09375 0.5,-0.09375 0.5,0 0.609375,0 0.8125,0 1.3125,-0.03125 1.515625,-0.03125 1.625,-0.03125 1.875,-0.03125 2,-0.015625 2.125,-0.015625 2.3125,0 2.4375,0 2.484375,0 2.578125,0 2.578125,-0.15625 2.578125,-0.25 2.5,-0.25 2.359375,-0.25 c 0,0 -0.140625,0 -0.265625,-0.015625 C 1.9375,-0.28125 1.9375,-0.296875 1.9375,-0.375 c 0,0 0,-0.046875 0.03125,-0.140625 z m 0.5,-2.109375 c 0.0625,-0.21875 0.0625,-0.25 0.359375,-0.25 h 0.8125 c 0.65625,0 1.046875,0.203125 1.046875,0.703125 0,0.203125 -0.078125,0.765625 -0.421875,1.078125 -0.25,0.21875 -0.65625,0.34375 -1.15625,0.34375 H 2.40625 Z m 0,0"
             id="id-67783ab0-d366-476e-bd15-50de13f1df2a" />
        </g>
      </g>
    </g>
    <g
       transform="matrix(1.04125,0,0,1.04125,136.82918,30.410059)"
       ns2:version="1.10.2"
       ns2:texconverter="pdflatex"
       ns2:pdfconverter="inkscape"
       ns2:text="$\\phi_E$"
       ns2:preamble="/Users/asho/Library/Application Support/org.inkscape.Inkscape/config/inkscape/extensions/textext/default_packages.tex"
       ns2:scale="2.951560754922359"
       ns2:alignment="middle center"
       ns2:stroke-to-path="0"
       ns2:inkscapeversion="1.3.2"
       id="g5306-8-5"
       ns2:jacobian_sqrt="1.04125">
      <defs
         id="id-81f39feb-f5dc-4247-a97f-1296417804be">
        <g
           id="id-39fa6172-c5ff-4898-858f-962ed9af0193">
          <g
             id="id-ff14f715-b6ac-4ad4-aa31-477cc2f47e53">
            <path
               d="m 4.359375,-6.671875 c 0,-0.03125 0.03125,-0.140625 0.03125,-0.140625 0,-0.015625 0,-0.109375 -0.125,-0.109375 -0.09375,0 -0.109375,0.03125 -0.15625,0.203125 L 3.53125,-4.421875 c -1.578125,0.0625 -3.046875,1.375 -3.046875,2.734375 0,0.953125 0.703125,1.734375 1.921875,1.8125 C 2.328125,0.421875 2.25,0.75 2.171875,1.0625 c -0.125,0.46875 -0.21875,0.84375 -0.21875,0.875 0,0.09375 0.078125,0.109375 0.125,0.109375 C 2.125,2.046875 2.140625,2.03125 2.171875,2 2.1875,1.984375 2.25,1.75 2.28125,1.609375 L 2.65625,0.125 c 1.609375,-0.0625 3.0625,-1.40625 3.0625,-2.734375 0,-0.796875 -0.53125,-1.703125 -1.921875,-1.8125 z m -1.90625,6.578125 c -0.59375,-0.03125 -1.3125,-0.390625 -1.3125,-1.375 0,-1.203125 0.859375,-2.59375 2.34375,-2.734375 z m 1.28125,-4.109375 c 0.765625,0.046875 1.328125,0.5 1.328125,1.375 0,1.1875 -0.859375,2.609375 -2.34375,2.734375 z m 0,0"
               id="id-6f11fd34-0023-471c-9036-43345e0fc3c6" />
          </g>
          <g
             id="id-b4a21ebe-887c-45ab-bd0d-f5a880e3ec14">
            <path
               d="m 5.515625,-1.609375 c 0.046875,-0.09375 0.046875,-0.125 0.046875,-0.125 0,-0.046875 -0.03125,-0.09375 -0.125,-0.09375 -0.015625,0 -0.046875,0 -0.078125,0.015625 0,0.015625 -0.015625,0.03125 -0.09375,0.203125 C 4.8125,-0.59375 4.453125,-0.25 3.3125,-0.25 H 2.125 c -0.203125,0 -0.21875,-0.015625 -0.21875,-0.078125 0,0 0,-0.03125 0.03125,-0.140625 L 2.40625,-2.328125 H 3.1875 c 0.546875,0 0.625,0.078125 0.625,0.3125 0,0.078125 -0.015625,0.203125 -0.046875,0.3125 C 3.75,-1.640625 3.75,-1.625 3.75,-1.609375 c 0,0 0,0.09375 0.125,0.09375 0.09375,0 0.09375,-0.03125 0.125,-0.15625 l 0.390625,-1.53125 c 0.015625,-0.078125 0.015625,-0.09375 0.015625,-0.09375 0,-0.078125 -0.0625,-0.109375 -0.125,-0.109375 -0.09375,0 -0.09375,0.046875 -0.140625,0.1875 C 4,-2.671875 3.796875,-2.578125 3.203125,-2.578125 H 2.46875 L 2.890625,-4.25 c 0.046875,-0.203125 0.0625,-0.234375 0.34375,-0.234375 H 4.375 c 0.921875,0 1.140625,0.1875 1.140625,0.8125 0,0.1875 -0.03125,0.390625 -0.03125,0.421875 0,0.0625 0.03125,0.125 0.125,0.125 0.109375,0 0.109375,-0.0625 0.125,-0.1875 l 0.125,-1.203125 C 5.875,-4.734375 5.828125,-4.734375 5.65625,-4.734375 H 1.828125 c -0.140625,0 -0.21875,0 -0.21875,0.15625 0,0.09375 0.0625,0.09375 0.21875,0.09375 0.109375,0 0.140625,0 0.265625,0.015625 C 2.234375,-4.453125 2.25,-4.4375 2.25,-4.375 c 0,0.046875 -0.015625,0.125 -0.03125,0.15625 L 1.3125,-0.578125 C 1.234375,-0.296875 1.234375,-0.25 0.6875,-0.25 c -0.125,0 -0.203125,0 -0.203125,0.15625 C 0.484375,0 0.5625,0 0.6875,0 H 4.625 c 0.171875,0 0.1875,0 0.234375,-0.125 z m 0,0"
               id="id-265af92f-f9ef-4474-849a-db53dcf67d93" />
          </g>
        </g>
      </defs>
      <g
         fill="#000000"
         fill-opacity="1"
         id="id-8d27358e-ddf1-4553-ba9a-bd3787dca9a0"
         transform="translate(-149.196,-127.843)">
        <g
           transform="translate(148.712,134.765)"
           id="g2407">
          <path
             d="m 4.359375,-6.671875 c 0,-0.03125 0.03125,-0.140625 0.03125,-0.140625 0,-0.015625 0,-0.109375 -0.125,-0.109375 -0.09375,0 -0.109375,0.03125 -0.15625,0.203125 L 3.53125,-4.421875 c -1.578125,0.0625 -3.046875,1.375 -3.046875,2.734375 0,0.953125 0.703125,1.734375 1.921875,1.8125 C 2.328125,0.421875 2.25,0.75 2.171875,1.0625 c -0.125,0.46875 -0.21875,0.84375 -0.21875,0.875 0,0.09375 0.078125,0.109375 0.125,0.109375 C 2.125,2.046875 2.140625,2.03125 2.171875,2 2.1875,1.984375 2.25,1.75 2.28125,1.609375 L 2.65625,0.125 c 1.609375,-0.0625 3.0625,-1.40625 3.0625,-2.734375 0,-0.796875 -0.53125,-1.703125 -1.921875,-1.8125 z m -1.90625,6.578125 c -0.59375,-0.03125 -1.3125,-0.390625 -1.3125,-1.375 0,-1.203125 0.859375,-2.59375 2.34375,-2.734375 z m 1.28125,-4.109375 c 0.765625,0.046875 1.328125,0.5 1.328125,1.375 0,1.1875 -0.859375,2.609375 -2.34375,2.734375 z m 0,0"
             id="id-b92eedb1-644d-4cdb-a902-12c3db1c9cf5" />
        </g>
      </g>
      <g
         fill="#000000"
         fill-opacity="1"
         id="id-01671eda-e9d7-4228-b46a-4d501399b944"
         transform="translate(-149.196,-127.843)">
        <g
           transform="translate(154.648,136.259)"
           id="g3268">
          <path
             d="m 5.515625,-1.609375 c 0.046875,-0.09375 0.046875,-0.125 0.046875,-0.125 0,-0.046875 -0.03125,-0.09375 -0.125,-0.09375 -0.015625,0 -0.046875,0 -0.078125,0.015625 0,0.015625 -0.015625,0.03125 -0.09375,0.203125 C 4.8125,-0.59375 4.453125,-0.25 3.3125,-0.25 H 2.125 c -0.203125,0 -0.21875,-0.015625 -0.21875,-0.078125 0,0 0,-0.03125 0.03125,-0.140625 L 2.40625,-2.328125 H 3.1875 c 0.546875,0 0.625,0.078125 0.625,0.3125 0,0.078125 -0.015625,0.203125 -0.046875,0.3125 C 3.75,-1.640625 3.75,-1.625 3.75,-1.609375 c 0,0 0,0.09375 0.125,0.09375 0.09375,0 0.09375,-0.03125 0.125,-0.15625 l 0.390625,-1.53125 c 0.015625,-0.078125 0.015625,-0.09375 0.015625,-0.09375 0,-0.078125 -0.0625,-0.109375 -0.125,-0.109375 -0.09375,0 -0.09375,0.046875 -0.140625,0.1875 C 4,-2.671875 3.796875,-2.578125 3.203125,-2.578125 H 2.46875 L 2.890625,-4.25 c 0.046875,-0.203125 0.0625,-0.234375 0.34375,-0.234375 H 4.375 c 0.921875,0 1.140625,0.1875 1.140625,0.8125 0,0.1875 -0.03125,0.390625 -0.03125,0.421875 0,0.0625 0.03125,0.125 0.125,0.125 0.109375,0 0.109375,-0.0625 0.125,-0.1875 l 0.125,-1.203125 C 5.875,-4.734375 5.828125,-4.734375 5.65625,-4.734375 H 1.828125 c -0.140625,0 -0.21875,0 -0.21875,0.15625 0,0.09375 0.0625,0.09375 0.21875,0.09375 0.109375,0 0.140625,0 0.265625,0.015625 C 2.234375,-4.453125 2.25,-4.4375 2.25,-4.375 c 0,0.046875 -0.015625,0.125 -0.03125,0.15625 L 1.3125,-0.578125 C 1.234375,-0.296875 1.234375,-0.25 0.6875,-0.25 c -0.125,0 -0.203125,0 -0.203125,0.15625 C 0.484375,0 0.5625,0 0.6875,0 H 4.625 c 0.171875,0 0.1875,0 0.234375,-0.125 z m 0,0"
             id="id-f1f35bbc-e716-43d0-a1e4-06f280ef42d2" />
        </g>
      </g>
    </g>
    <path
       style="fill:#1a1a1a;stroke:#000000;stroke-width:0.614;stroke-dasharray:2.456, 2.456;stroke-dashoffset:0;stroke-opacity:1"
       d="M 36.312877,12.350687 V 44.999999"
       id="path13"
       inkscape:path-effect="#path-effect13"
       inkscape:original-d="m 36.312877,12.350687 c 0,10.883104 0,21.766209 0,32.649312"
       transform="matrix(0.38597469,0,0,0.38597469,38.713075,5.6078835)" />
    <path
       style="fill:#1a1a1a;stroke:#000000;stroke-width:0.614;stroke-dasharray:2.456, 2.456;stroke-dashoffset:0;stroke-opacity:1"
       d="M 36.312877,12.350687 V 44.999999"
       id="path13-0"
       inkscape:path-effect="#path-effect13-8"
       inkscape:original-d="m 36.312877,12.350687 c 0,10.883104 0,21.766209 0,32.649312"
       transform="matrix(0.38597469,0,0,0.38597469,50.98415,73.932045)" />
    <g
       transform="matrix(1.04125,0,0,1.04125,50.007492,1.5348503)"
       ns2:version="1.10.2"
       ns2:texconverter="pdflatex"
       ns2:pdfconverter="inkscape"
       ns2:text="$y_P$"
       ns2:preamble="/Users/asho/Library/Application Support/org.inkscape.Inkscape/config/inkscape/extensions/textext/default_packages.tex"
       ns2:scale="2.951560754922359"
       ns2:alignment="middle center"
       ns2:stroke-to-path="0"
       ns2:inkscapeversion="1.3.2"
       id="g2987-0"
       ns2:jacobian_sqrt="1.04125">
      <defs
         id="id-fd42ae7a-8a0a-4b8c-8700-35284c2164c7">
        <g
           id="id-3e7dad46-54dd-4016-ac59-013f1de7ef21">
          <g
             id="id-89439adf-9f81-4425-a278-bee77e307abf">
            <path
               d="m 4.84375,-3.796875 c 0.046875,-0.140625 0.046875,-0.15625 0.046875,-0.234375 0,-0.171875 -0.140625,-0.265625 -0.296875,-0.265625 -0.09375,0 -0.25,0.0625 -0.34375,0.203125 -0.015625,0.0625 -0.109375,0.359375 -0.140625,0.546875 -0.078125,0.25 -0.140625,0.53125 -0.203125,0.796875 l -0.453125,1.796875 c -0.03125,0.140625 -0.46875,0.84375 -1.125,0.84375 -0.5,0 -0.609375,-0.4375 -0.609375,-0.8125 C 1.71875,-1.375 1.890625,-2 2.21875,-2.875 2.375,-3.28125 2.421875,-3.390625 2.421875,-3.59375 c 0,-0.4375 -0.3125,-0.8125 -0.8125,-0.8125 -0.953125,0 -1.3125,1.453125 -1.3125,1.53125 0,0.109375 0.09375,0.109375 0.109375,0.109375 0.109375,0 0.109375,-0.03125 0.15625,-0.1875 0.28125,-0.9375 0.671875,-1.234375 1.015625,-1.234375 0.078125,0 0.25,0 0.25,0.3125 0,0.25 -0.109375,0.515625 -0.171875,0.703125 -0.40625,1.0625 -0.578125,1.625 -0.578125,2.09375 0,0.890625 0.625,1.1875 1.21875,1.1875 0.390625,0 0.71875,-0.171875 1,-0.453125 -0.125,0.515625 -0.25,1.015625 -0.640625,1.546875 -0.265625,0.328125 -0.640625,0.625 -1.09375,0.625 -0.140625,0 -0.59375,-0.03125 -0.765625,-0.421875 0.15625,0 0.296875,0 0.421875,-0.125 C 1.328125,1.203125 1.421875,1.0625 1.421875,0.875 1.421875,0.5625 1.15625,0.53125 1.0625,0.53125 0.828125,0.53125 0.5,0.6875 0.5,1.171875 c 0,0.5 0.4375,0.875 1.0625,0.875 1.015625,0 2.046875,-0.90625 2.328125,-2.03125 z m 0,0"
               id="id-dc41f7e7-4928-4acc-9fb7-2926719dfda6" />
          </g>
          <g
             id="id-90652cb1-9fea-4230-b41b-a8b8bbffc0c0">
            <path
               d="m 2.375,-2.15625 h 1.265625 c 1.171875,0 2.171875,-0.75 2.171875,-1.515625 0,-0.59375 -0.578125,-1.09375 -1.53125,-1.09375 h -2.4375 c -0.140625,0 -0.21875,0 -0.21875,0.15625 0,0.09375 0.078125,0.09375 0.234375,0.09375 0.109375,0 0.140625,0 0.265625,0.015625 0.140625,0.015625 0.140625,0.03125 0.140625,0.109375 0,0 0,0.046875 -0.015625,0.140625 L 1.328125,-0.578125 C 1.25,-0.296875 1.25,-0.25 0.703125,-0.25 0.578125,-0.25 0.5,-0.25 0.5,-0.09375 0.5,-0.09375 0.5,0 0.609375,0 0.8125,0 1.3125,-0.03125 1.515625,-0.03125 1.625,-0.03125 1.875,-0.03125 2,-0.015625 2.125,-0.015625 2.3125,0 2.4375,0 2.484375,0 2.578125,0 2.578125,-0.15625 2.578125,-0.25 2.5,-0.25 2.359375,-0.25 c 0,0 -0.140625,0 -0.265625,-0.015625 C 1.9375,-0.28125 1.9375,-0.296875 1.9375,-0.375 c 0,0 0,-0.046875 0.03125,-0.140625 z m 0.5,-2.109375 c 0.0625,-0.21875 0.0625,-0.25 0.359375,-0.25 h 0.8125 c 0.65625,0 1.046875,0.203125 1.046875,0.703125 0,0.203125 -0.078125,0.765625 -0.421875,1.078125 -0.25,0.21875 -0.65625,0.34375 -1.15625,0.34375 H 2.40625 Z m 0,0"
               id="id-8edc58c6-959a-475c-a4f8-3afc8567860f" />
          </g>
        </g>
      </defs>
      <g
         fill="#000000"
         fill-opacity="1"
         id="id-72ff707a-32ff-4bc8-97a8-022b13a2f61d"
         transform="translate(-149.009,-130.359)">
        <g
           transform="translate(148.712,134.765)"
           id="g5140">
          <path
             d="m 4.84375,-3.796875 c 0.046875,-0.140625 0.046875,-0.15625 0.046875,-0.234375 0,-0.171875 -0.140625,-0.265625 -0.296875,-0.265625 -0.09375,0 -0.25,0.0625 -0.34375,0.203125 -0.015625,0.0625 -0.109375,0.359375 -0.140625,0.546875 -0.078125,0.25 -0.140625,0.53125 -0.203125,0.796875 l -0.453125,1.796875 c -0.03125,0.140625 -0.46875,0.84375 -1.125,0.84375 -0.5,0 -0.609375,-0.4375 -0.609375,-0.8125 C 1.71875,-1.375 1.890625,-2 2.21875,-2.875 2.375,-3.28125 2.421875,-3.390625 2.421875,-3.59375 c 0,-0.4375 -0.3125,-0.8125 -0.8125,-0.8125 -0.953125,0 -1.3125,1.453125 -1.3125,1.53125 0,0.109375 0.09375,0.109375 0.109375,0.109375 0.109375,0 0.109375,-0.03125 0.15625,-0.1875 0.28125,-0.9375 0.671875,-1.234375 1.015625,-1.234375 0.078125,0 0.25,0 0.25,0.3125 0,0.25 -0.109375,0.515625 -0.171875,0.703125 -0.40625,1.0625 -0.578125,1.625 -0.578125,2.09375 0,0.890625 0.625,1.1875 1.21875,1.1875 0.390625,0 0.71875,-0.171875 1,-0.453125 -0.125,0.515625 -0.25,1.015625 -0.640625,1.546875 -0.265625,0.328125 -0.640625,0.625 -1.09375,0.625 -0.140625,0 -0.59375,-0.03125 -0.765625,-0.421875 0.15625,0 0.296875,0 0.421875,-0.125 C 1.328125,1.203125 1.421875,1.0625 1.421875,0.875 1.421875,0.5625 1.15625,0.53125 1.0625,0.53125 0.828125,0.53125 0.5,0.6875 0.5,1.171875 c 0,0.5 0.4375,0.875 1.0625,0.875 1.015625,0 2.046875,-0.90625 2.328125,-2.03125 z m 0,0"
             id="id-120fe757-d091-4c16-b932-2766e5cf1cba" />
        </g>
      </g>
      <g
         fill="#000000"
         fill-opacity="1"
         id="id-c89f303e-ed9d-4950-baf1-33ff3f278c84"
         transform="translate(-149.009,-130.359)">
        <g
           transform="translate(153.597,136.259)"
           id="g1533">
          <path
             d="m 2.375,-2.15625 h 1.265625 c 1.171875,0 2.171875,-0.75 2.171875,-1.515625 0,-0.59375 -0.578125,-1.09375 -1.53125,-1.09375 h -2.4375 c -0.140625,0 -0.21875,0 -0.21875,0.15625 0,0.09375 0.078125,0.09375 0.234375,0.09375 0.109375,0 0.140625,0 0.265625,0.015625 0.140625,0.015625 0.140625,0.03125 0.140625,0.109375 0,0 0,0.046875 -0.015625,0.140625 L 1.328125,-0.578125 C 1.25,-0.296875 1.25,-0.25 0.703125,-0.25 0.578125,-0.25 0.5,-0.25 0.5,-0.09375 0.5,-0.09375 0.5,0 0.609375,0 0.8125,0 1.3125,-0.03125 1.515625,-0.03125 1.625,-0.03125 1.875,-0.03125 2,-0.015625 2.125,-0.015625 2.3125,0 2.4375,0 2.484375,0 2.578125,0 2.578125,-0.15625 2.578125,-0.25 2.5,-0.25 2.359375,-0.25 c 0,0 -0.140625,0 -0.265625,-0.015625 C 1.9375,-0.28125 1.9375,-0.296875 1.9375,-0.375 c 0,0 0,-0.046875 0.03125,-0.140625 z m 0.5,-2.109375 c 0.0625,-0.21875 0.0625,-0.25 0.359375,-0.25 h 0.8125 c 0.65625,0 1.046875,0.203125 1.046875,0.703125 0,0.203125 -0.078125,0.765625 -0.421875,1.078125 -0.25,0.21875 -0.65625,0.34375 -1.15625,0.34375 H 2.40625 Z m 0,0"
             id="id-e383bd76-1a74-4d66-a3af-969bd36325e7" />
        </g>
      </g>
    </g>
    <path
       style="fill:#1a1a1a;stroke:#000000;stroke-width:0.614;stroke-dasharray:2.456, 2.456;stroke-dashoffset:0;stroke-opacity:1"
       d="M 36.312877,12.350687 V 44.999999"
       id="path13-0-3"
       inkscape:path-effect="#path-effect13-8-7"
       inkscape:original-d="m 36.312877,12.350687 c 0,10.883104 0,21.766209 0,32.649312"
       transform="matrix(0.38597469,0,0,0.38597469,128.58548,7.9762508)" />
    <g
       transform="matrix(1.04125,0,0,1.04125,139.18666,1.5348503)"
       ns2:version="1.10.2"
       ns2:texconverter="pdflatex"
       ns2:pdfconverter="inkscape"
       ns2:text="$y_E$"
       ns2:preamble="/Users/asho/Library/Application Support/org.inkscape.Inkscape/config/inkscape/extensions/textext/default_packages.tex"
       ns2:scale="2.951560754922359"
       ns2:alignment="middle center"
       ns2:stroke-to-path="0"
       ns2:inkscapeversion="1.3.2"
       id="g2987-0-2"
       ns2:jacobian_sqrt="1.04125">
      <defs
         id="id-1a041b4e-5d62-47da-bc45-eaf0245662ab">
        <g
           id="id-1a7f53ea-dd0b-4781-a256-384152bcc529">
          <g
             id="id-acfb2338-c621-4e97-aca5-4088d0b8bd99">
            <path
               d="m 4.84375,-3.796875 c 0.046875,-0.140625 0.046875,-0.15625 0.046875,-0.234375 0,-0.171875 -0.140625,-0.265625 -0.296875,-0.265625 -0.09375,0 -0.25,0.0625 -0.34375,0.203125 -0.015625,0.0625 -0.109375,0.359375 -0.140625,0.546875 -0.078125,0.25 -0.140625,0.53125 -0.203125,0.796875 l -0.453125,1.796875 c -0.03125,0.140625 -0.46875,0.84375 -1.125,0.84375 -0.5,0 -0.609375,-0.4375 -0.609375,-0.8125 C 1.71875,-1.375 1.890625,-2 2.21875,-2.875 2.375,-3.28125 2.421875,-3.390625 2.421875,-3.59375 c 0,-0.4375 -0.3125,-0.8125 -0.8125,-0.8125 -0.953125,0 -1.3125,1.453125 -1.3125,1.53125 0,0.109375 0.09375,0.109375 0.109375,0.109375 0.109375,0 0.109375,-0.03125 0.15625,-0.1875 0.28125,-0.9375 0.671875,-1.234375 1.015625,-1.234375 0.078125,0 0.25,0 0.25,0.3125 0,0.25 -0.109375,0.515625 -0.171875,0.703125 -0.40625,1.0625 -0.578125,1.625 -0.578125,2.09375 0,0.890625 0.625,1.1875 1.21875,1.1875 0.390625,0 0.71875,-0.171875 1,-0.453125 -0.125,0.515625 -0.25,1.015625 -0.640625,1.546875 -0.265625,0.328125 -0.640625,0.625 -1.09375,0.625 -0.140625,0 -0.59375,-0.03125 -0.765625,-0.421875 0.15625,0 0.296875,0 0.421875,-0.125 C 1.328125,1.203125 1.421875,1.0625 1.421875,0.875 1.421875,0.5625 1.15625,0.53125 1.0625,0.53125 0.828125,0.53125 0.5,0.6875 0.5,1.171875 c 0,0.5 0.4375,0.875 1.0625,0.875 1.015625,0 2.046875,-0.90625 2.328125,-2.03125 z m 0,0"
               id="id-b104d933-cc4e-42a4-9c91-5228ba3ead29" />
          </g>
          <g
             id="id-f86da527-aebe-49c8-8ba6-011a35ffdc72">
            <path
               d="m 5.515625,-1.609375 c 0.046875,-0.09375 0.046875,-0.125 0.046875,-0.125 0,-0.046875 -0.03125,-0.09375 -0.125,-0.09375 -0.015625,0 -0.046875,0 -0.078125,0.015625 0,0.015625 -0.015625,0.03125 -0.09375,0.203125 C 4.8125,-0.59375 4.453125,-0.25 3.3125,-0.25 H 2.125 c -0.203125,0 -0.21875,-0.015625 -0.21875,-0.078125 0,0 0,-0.03125 0.03125,-0.140625 L 2.40625,-2.328125 H 3.1875 c 0.546875,0 0.625,0.078125 0.625,0.3125 0,0.078125 -0.015625,0.203125 -0.046875,0.3125 C 3.75,-1.640625 3.75,-1.625 3.75,-1.609375 c 0,0 0,0.09375 0.125,0.09375 0.09375,0 0.09375,-0.03125 0.125,-0.15625 l 0.390625,-1.53125 c 0.015625,-0.078125 0.015625,-0.09375 0.015625,-0.09375 0,-0.078125 -0.0625,-0.109375 -0.125,-0.109375 -0.09375,0 -0.09375,0.046875 -0.140625,0.1875 C 4,-2.671875 3.796875,-2.578125 3.203125,-2.578125 H 2.46875 L 2.890625,-4.25 c 0.046875,-0.203125 0.0625,-0.234375 0.34375,-0.234375 H 4.375 c 0.921875,0 1.140625,0.1875 1.140625,0.8125 0,0.1875 -0.03125,0.390625 -0.03125,0.421875 0,0.0625 0.03125,0.125 0.125,0.125 0.109375,0 0.109375,-0.0625 0.125,-0.1875 l 0.125,-1.203125 C 5.875,-4.734375 5.828125,-4.734375 5.65625,-4.734375 H 1.828125 c -0.140625,0 -0.21875,0 -0.21875,0.15625 0,0.09375 0.0625,0.09375 0.21875,0.09375 0.109375,0 0.140625,0 0.265625,0.015625 C 2.234375,-4.453125 2.25,-4.4375 2.25,-4.375 c 0,0.046875 -0.015625,0.125 -0.03125,0.15625 L 1.3125,-0.578125 C 1.234375,-0.296875 1.234375,-0.25 0.6875,-0.25 c -0.125,0 -0.203125,0 -0.203125,0.15625 C 0.484375,0 0.5625,0 0.6875,0 H 4.625 c 0.171875,0 0.1875,0 0.234375,-0.125 z m 0,0"
               id="id-c436fdbf-7bb5-45ab-869d-5ac57b5d819b" />
          </g>
        </g>
      </defs>
      <g
         fill="#000000"
         fill-opacity="1"
         id="id-01ae863d-27ba-4673-ae7f-2358703275af"
         transform="translate(-149.009,-130.359)">
        <g
           transform="translate(148.712,134.765)"
           id="g267">
          <path
             d="m 4.84375,-3.796875 c 0.046875,-0.140625 0.046875,-0.15625 0.046875,-0.234375 0,-0.171875 -0.140625,-0.265625 -0.296875,-0.265625 -0.09375,0 -0.25,0.0625 -0.34375,0.203125 -0.015625,0.0625 -0.109375,0.359375 -0.140625,0.546875 -0.078125,0.25 -0.140625,0.53125 -0.203125,0.796875 l -0.453125,1.796875 c -0.03125,0.140625 -0.46875,0.84375 -1.125,0.84375 -0.5,0 -0.609375,-0.4375 -0.609375,-0.8125 C 1.71875,-1.375 1.890625,-2 2.21875,-2.875 2.375,-3.28125 2.421875,-3.390625 2.421875,-3.59375 c 0,-0.4375 -0.3125,-0.8125 -0.8125,-0.8125 -0.953125,0 -1.3125,1.453125 -1.3125,1.53125 0,0.109375 0.09375,0.109375 0.109375,0.109375 0.109375,0 0.109375,-0.03125 0.15625,-0.1875 0.28125,-0.9375 0.671875,-1.234375 1.015625,-1.234375 0.078125,0 0.25,0 0.25,0.3125 0,0.25 -0.109375,0.515625 -0.171875,0.703125 -0.40625,1.0625 -0.578125,1.625 -0.578125,2.09375 0,0.890625 0.625,1.1875 1.21875,1.1875 0.390625,0 0.71875,-0.171875 1,-0.453125 -0.125,0.515625 -0.25,1.015625 -0.640625,1.546875 -0.265625,0.328125 -0.640625,0.625 -1.09375,0.625 -0.140625,0 -0.59375,-0.03125 -0.765625,-0.421875 0.15625,0 0.296875,0 0.421875,-0.125 C 1.328125,1.203125 1.421875,1.0625 1.421875,0.875 1.421875,0.5625 1.15625,0.53125 1.0625,0.53125 0.828125,0.53125 0.5,0.6875 0.5,1.171875 c 0,0.5 0.4375,0.875 1.0625,0.875 1.015625,0 2.046875,-0.90625 2.328125,-2.03125 z m 0,0"
             id="id-c0510696-15f2-431e-a304-0806c8323ee0" />
        </g>
      </g>
      <g
         fill="#000000"
         fill-opacity="1"
         id="id-4c1b853e-8980-489d-a711-a2947a7dc790"
         transform="translate(-149.009,-130.359)">
        <g
           transform="translate(153.597,136.259)"
           id="g1516">
          <path
             d="m 5.515625,-1.609375 c 0.046875,-0.09375 0.046875,-0.125 0.046875,-0.125 0,-0.046875 -0.03125,-0.09375 -0.125,-0.09375 -0.015625,0 -0.046875,0 -0.078125,0.015625 0,0.015625 -0.015625,0.03125 -0.09375,0.203125 C 4.8125,-0.59375 4.453125,-0.25 3.3125,-0.25 H 2.125 c -0.203125,0 -0.21875,-0.015625 -0.21875,-0.078125 0,0 0,-0.03125 0.03125,-0.140625 L 2.40625,-2.328125 H 3.1875 c 0.546875,0 0.625,0.078125 0.625,0.3125 0,0.078125 -0.015625,0.203125 -0.046875,0.3125 C 3.75,-1.640625 3.75,-1.625 3.75,-1.609375 c 0,0 0,0.09375 0.125,0.09375 0.09375,0 0.09375,-0.03125 0.125,-0.15625 l 0.390625,-1.53125 c 0.015625,-0.078125 0.015625,-0.09375 0.015625,-0.09375 0,-0.078125 -0.0625,-0.109375 -0.125,-0.109375 -0.09375,0 -0.09375,0.046875 -0.140625,0.1875 C 4,-2.671875 3.796875,-2.578125 3.203125,-2.578125 H 2.46875 L 2.890625,-4.25 c 0.046875,-0.203125 0.0625,-0.234375 0.34375,-0.234375 H 4.375 c 0.921875,0 1.140625,0.1875 1.140625,0.8125 0,0.1875 -0.03125,0.390625 -0.03125,0.421875 0,0.0625 0.03125,0.125 0.125,0.125 0.109375,0 0.109375,-0.0625 0.125,-0.1875 l 0.125,-1.203125 C 5.875,-4.734375 5.828125,-4.734375 5.65625,-4.734375 H 1.828125 c -0.140625,0 -0.21875,0 -0.21875,0.15625 0,0.09375 0.0625,0.09375 0.21875,0.09375 0.109375,0 0.140625,0 0.265625,0.015625 C 2.234375,-4.453125 2.25,-4.4375 2.25,-4.375 c 0,0.046875 -0.015625,0.125 -0.03125,0.15625 L 1.3125,-0.578125 C 1.234375,-0.296875 1.234375,-0.25 0.6875,-0.25 c -0.125,0 -0.203125,0 -0.203125,0.15625 C 0.484375,0 0.5625,0 0.6875,0 H 4.625 c 0.171875,0 0.1875,0 0.234375,-0.125 z m 0,0"
             id="id-691c7fc4-ed3b-4ddb-ad17-1de92278de66" />
        </g>
      </g>
    </g>
    <g
       transform="matrix(1.04125,0,0,1.04125,79.186655,6.5348503)"
       ns2:version="1.10.2"
       ns2:texconverter="pdflatex"
       ns2:pdfconverter="inkscape"
       ns2:text="$y_e$"
       ns2:preamble="/Users/asho/Library/Application Support/org.inkscape.Inkscape/config/inkscape/extensions/textext/default_packages.tex"
       ns2:scale="2.951560754922359"
       ns2:alignment="middle center"
       ns2:stroke-to-path="0"
       ns2:inkscapeversion="1.3.2"
       id="g9072"
       ns2:jacobian_sqrt="1.04125">
      <defs
         id="id-a16d0f8c-6eff-4281-b378-06d0b36b5c0b">
        <g
           id="id-806fb200-1f2e-42bd-96a0-3f1ada2db997">
          <g
             id="id-7c8b69d8-9eeb-405c-8df7-b40f5f6cd567">
            <path
               d="m 4.84375,-3.796875 c 0.046875,-0.140625 0.046875,-0.15625 0.046875,-0.234375 0,-0.171875 -0.140625,-0.265625 -0.296875,-0.265625 -0.09375,0 -0.25,0.0625 -0.34375,0.203125 -0.015625,0.0625 -0.109375,0.359375 -0.140625,0.546875 -0.078125,0.25 -0.140625,0.53125 -0.203125,0.796875 l -0.453125,1.796875 c -0.03125,0.140625 -0.46875,0.84375 -1.125,0.84375 -0.5,0 -0.609375,-0.4375 -0.609375,-0.8125 C 1.71875,-1.375 1.890625,-2 2.21875,-2.875 2.375,-3.28125 2.421875,-3.390625 2.421875,-3.59375 c 0,-0.4375 -0.3125,-0.8125 -0.8125,-0.8125 -0.953125,0 -1.3125,1.453125 -1.3125,1.53125 0,0.109375 0.09375,0.109375 0.109375,0.109375 0.109375,0 0.109375,-0.03125 0.15625,-0.1875 0.28125,-0.9375 0.671875,-1.234375 1.015625,-1.234375 0.078125,0 0.25,0 0.25,0.3125 0,0.25 -0.109375,0.515625 -0.171875,0.703125 -0.40625,1.0625 -0.578125,1.625 -0.578125,2.09375 0,0.890625 0.625,1.1875 1.21875,1.1875 0.390625,0 0.71875,-0.171875 1,-0.453125 -0.125,0.515625 -0.25,1.015625 -0.640625,1.546875 -0.265625,0.328125 -0.640625,0.625 -1.09375,0.625 -0.140625,0 -0.59375,-0.03125 -0.765625,-0.421875 0.15625,0 0.296875,0 0.421875,-0.125 C 1.328125,1.203125 1.421875,1.0625 1.421875,0.875 1.421875,0.5625 1.15625,0.53125 1.0625,0.53125 0.828125,0.53125 0.5,0.6875 0.5,1.171875 c 0,0.5 0.4375,0.875 1.0625,0.875 1.015625,0 2.046875,-0.90625 2.328125,-2.03125 z m 0,0"
               id="id-1f149c07-0a98-42e9-9598-e033292bb505" />
          </g>
          <g
             id="id-4e8ce7d9-a131-430f-a247-3cf9142ebeae">
            <path
               d="m 1.5625,-1.59375 c 0.1875,0 0.75,-0.015625 1.125,-0.140625 0.515625,-0.1875 0.609375,-0.515625 0.609375,-0.71875 0,-0.390625 -0.390625,-0.625 -0.859375,-0.625 -0.84375,0 -1.96875,0.640625 -1.96875,1.84375 0,0.703125 0.4375,1.296875 1.25,1.296875 1.1875,0 1.734375,-0.6875 1.734375,-0.78125 0,-0.046875 -0.0625,-0.125 -0.125,-0.125 -0.03125,0 -0.046875,0.015625 -0.109375,0.078125 C 2.671875,-0.125 1.859375,-0.125 1.734375,-0.125 1.3125,-0.125 1.03125,-0.40625 1.03125,-0.96875 c 0,-0.09375 0,-0.234375 0.09375,-0.625 z M 1.171875,-1.78125 C 1.46875,-2.796875 2.234375,-2.875 2.4375,-2.875 2.734375,-2.875 3,-2.71875 3,-2.453125 3,-1.78125 1.8125,-1.78125 1.515625,-1.78125 Z m 0,0"
               id="id-449382b0-7053-42c9-94b1-c6357bd9b98e" />
          </g>
        </g>
      </defs>
      <g
         fill="#000000"
         fill-opacity="1"
         id="id-381fe635-9e1a-4378-bfd6-0de31af61d1e"
         transform="translate(-149.009,-130.359)">
        <g
           transform="translate(148.712,134.765)"
           id="g1482">
          <path
             d="m 4.84375,-3.796875 c 0.046875,-0.140625 0.046875,-0.15625 0.046875,-0.234375 0,-0.171875 -0.140625,-0.265625 -0.296875,-0.265625 -0.09375,0 -0.25,0.0625 -0.34375,0.203125 -0.015625,0.0625 -0.109375,0.359375 -0.140625,0.546875 -0.078125,0.25 -0.140625,0.53125 -0.203125,0.796875 l -0.453125,1.796875 c -0.03125,0.140625 -0.46875,0.84375 -1.125,0.84375 -0.5,0 -0.609375,-0.4375 -0.609375,-0.8125 C 1.71875,-1.375 1.890625,-2 2.21875,-2.875 2.375,-3.28125 2.421875,-3.390625 2.421875,-3.59375 c 0,-0.4375 -0.3125,-0.8125 -0.8125,-0.8125 -0.953125,0 -1.3125,1.453125 -1.3125,1.53125 0,0.109375 0.09375,0.109375 0.109375,0.109375 0.109375,0 0.109375,-0.03125 0.15625,-0.1875 0.28125,-0.9375 0.671875,-1.234375 1.015625,-1.234375 0.078125,0 0.25,0 0.25,0.3125 0,0.25 -0.109375,0.515625 -0.171875,0.703125 -0.40625,1.0625 -0.578125,1.625 -0.578125,2.09375 0,0.890625 0.625,1.1875 1.21875,1.1875 0.390625,0 0.71875,-0.171875 1,-0.453125 -0.125,0.515625 -0.25,1.015625 -0.640625,1.546875 -0.265625,0.328125 -0.640625,0.625 -1.09375,0.625 -0.140625,0 -0.59375,-0.03125 -0.765625,-0.421875 0.15625,0 0.296875,0 0.421875,-0.125 C 1.328125,1.203125 1.421875,1.0625 1.421875,0.875 1.421875,0.5625 1.15625,0.53125 1.0625,0.53125 0.828125,0.53125 0.5,0.6875 0.5,1.171875 c 0,0.5 0.4375,0.875 1.0625,0.875 1.015625,0 2.046875,-0.90625 2.328125,-2.03125 z m 0,0"
             id="id-c7c29d9a-193d-4c00-a283-f91cce4e4177" />
        </g>
      </g>
      <g
         fill="#000000"
         fill-opacity="1"
         id="id-e18dda3f-d82c-4e61-8e74-04e18811f269"
         transform="translate(-149.009,-130.359)">
        <g
           transform="translate(153.597,136.259)"
           id="g272">
          <path
             d="m 1.5625,-1.59375 c 0.1875,0 0.75,-0.015625 1.125,-0.140625 0.515625,-0.1875 0.609375,-0.515625 0.609375,-0.71875 0,-0.390625 -0.390625,-0.625 -0.859375,-0.625 -0.84375,0 -1.96875,0.640625 -1.96875,1.84375 0,0.703125 0.4375,1.296875 1.25,1.296875 1.1875,0 1.734375,-0.6875 1.734375,-0.78125 0,-0.046875 -0.0625,-0.125 -0.125,-0.125 -0.03125,0 -0.046875,0.015625 -0.109375,0.078125 C 2.671875,-0.125 1.859375,-0.125 1.734375,-0.125 1.3125,-0.125 1.03125,-0.40625 1.03125,-0.96875 c 0,-0.09375 0,-0.234375 0.09375,-0.625 z M 1.171875,-1.78125 C 1.46875,-2.796875 2.234375,-2.875 2.4375,-2.875 2.734375,-2.875 3,-2.71875 3,-2.453125 3,-1.78125 1.8125,-1.78125 1.515625,-1.78125 Z m 0,0"
             id="id-e97ab5b4-1444-4359-bf6a-d62ba4cce628" />
        </g>
      </g>
    </g>
    <rect
       style="fill:url(#linearGradient2);stroke:none;stroke-width:0.614;stroke-dasharray:2.456, 2.456"
       id="rect1"
       width="20"
       height="55"
       x="0.16171405"
       y="1.1113405" />
    <rect
       style="opacity:1;fill:#f9f9f9;stroke:none;stroke-width:0.414278;stroke-dasharray:1.65711, 1.65711"
       id="rect2"
       width="15.183712"
       height="15.356826"
       x="11.274173"
       y="2.8571262" />
    <rect
       style="fill:#f9f9f9;stroke:none;stroke-width:0.414278;stroke-dasharray:1.65711, 1.65711"
       id="rect2-6"
       width="15.183712"
       height="15.356826"
       x="11.604121"
       y="29.121258" />
    <g
       transform="matrix(1.04125,0,0,1.04125,110.76192,72.380867)"
       ns2:version="1.10.2"
       ns2:texconverter="pdflatex"
       ns2:pdfconverter="inkscape"
       ns2:text="$y_W$"
       ns2:preamble="/Users/asho/Library/Application Support/org.inkscape.Inkscape/config/inkscape/extensions/textext/default_packages.tex"
       ns2:scale="2.951560754922359"
       ns2:alignment="middle center"
       ns2:stroke-to-path="0"
       ns2:inkscapeversion="1.3.2"
       id="g2987"
       ns2:jacobian_sqrt="1.04125">
      <defs
         id="id-61d108d2-ac2e-49cf-b94b-ce8713d96042">
        <g
           id="id-e597ad15-1a20-4e6c-bca1-42ca2896f76a">
          <g
             id="id-2ff5e3d7-b9b8-4711-8932-ced7e5b9f159">
            <path
               d="m 4.84375,-3.796875 c 0.046875,-0.140625 0.046875,-0.15625 0.046875,-0.234375 0,-0.171875 -0.140625,-0.265625 -0.296875,-0.265625 -0.09375,0 -0.25,0.0625 -0.34375,0.203125 -0.015625,0.0625 -0.109375,0.359375 -0.140625,0.546875 -0.078125,0.25 -0.140625,0.53125 -0.203125,0.796875 l -0.453125,1.796875 c -0.03125,0.140625 -0.46875,0.84375 -1.125,0.84375 -0.5,0 -0.609375,-0.4375 -0.609375,-0.8125 C 1.71875,-1.375 1.890625,-2 2.21875,-2.875 2.375,-3.28125 2.421875,-3.390625 2.421875,-3.59375 c 0,-0.4375 -0.3125,-0.8125 -0.8125,-0.8125 -0.953125,0 -1.3125,1.453125 -1.3125,1.53125 0,0.109375 0.09375,0.109375 0.109375,0.109375 0.109375,0 0.109375,-0.03125 0.15625,-0.1875 0.28125,-0.9375 0.671875,-1.234375 1.015625,-1.234375 0.078125,0 0.25,0 0.25,0.3125 0,0.25 -0.109375,0.515625 -0.171875,0.703125 -0.40625,1.0625 -0.578125,1.625 -0.578125,2.09375 0,0.890625 0.625,1.1875 1.21875,1.1875 0.390625,0 0.71875,-0.171875 1,-0.453125 -0.125,0.515625 -0.25,1.015625 -0.640625,1.546875 -0.265625,0.328125 -0.640625,0.625 -1.09375,0.625 -0.140625,0 -0.59375,-0.03125 -0.765625,-0.421875 0.15625,0 0.296875,0 0.421875,-0.125 C 1.328125,1.203125 1.421875,1.0625 1.421875,0.875 1.421875,0.5625 1.15625,0.53125 1.0625,0.53125 0.828125,0.53125 0.5,0.6875 0.5,1.171875 c 0,0.5 0.4375,0.875 1.0625,0.875 1.015625,0 2.046875,-0.90625 2.328125,-2.03125 z m 0,0"
               id="id-b845f64f-8d6e-4a9c-9c2a-1624e3a7b5ec" />
          </g>
          <g
             id="id-e9f74503-7ffd-4f8e-a716-81d439bbca22">
            <path
               d="m 7.21875,-3.9375 0.125,-0.1875 C 7.484375,-4.3125 7.65625,-4.484375 8,-4.515625 c 0.078125,0 0.15625,0 0.15625,-0.140625 0,-0.046875 -0.03125,-0.109375 -0.09375,-0.109375 -0.15625,0 -0.359375,0.03125 -0.53125,0.03125 -0.234375,0 -0.546875,-0.03125 -0.765625,-0.03125 -0.046875,0 -0.15625,0 -0.15625,0.15625 0,0.09375 0.09375,0.09375 0.125,0.09375 0.15625,0.015625 0.390625,0.0625 0.390625,0.25 0,0.078125 -0.078125,0.203125 -0.109375,0.25 l -1.96875,3.234375 -0.375,-3.53125 c 0,-0.1875 0.40625,-0.203125 0.484375,-0.203125 0.09375,0 0.1875,0 0.1875,-0.140625 0,-0.015625 0,-0.109375 -0.125,-0.109375 -0.125,0 -0.296875,0.015625 -0.421875,0.03125 -0.140625,0 -0.328125,0 -0.46875,0 -0.15625,0 -0.5625,-0.03125 -0.71875,-0.03125 -0.046875,0 -0.140625,0 -0.140625,0.15625 0,0.09375 0.078125,0.09375 0.171875,0.09375 0.296875,0 0.34375,0.0625 0.359375,0.125 0,0.046875 0.015625,0.234375 0.046875,0.453125 L 2.125,-0.78125 1.765625,-4.203125 C 1.765625,-4.234375 1.75,-4.296875 1.75,-4.3125 c 0,-0.203125 0.4375,-0.203125 0.484375,-0.203125 0.09375,0 0.1875,0 0.1875,-0.140625 0,-0.03125 -0.015625,-0.109375 -0.109375,-0.109375 -0.203125,0 -0.703125,0.03125 -0.890625,0.03125 -0.234375,0 -0.53125,-0.03125 -0.734375,-0.03125 -0.078125,0 -0.140625,0.03125 -0.140625,0.15625 0,0.09375 0.078125,0.09375 0.1875,0.09375 0.328125,0 0.328125,0.046875 0.359375,0.21875 l 0.453125,4.25 c 0.015625,0.140625 0.03125,0.1875 0.15625,0.1875 C 1.8125,0.140625 1.875,0.078125 1.90625,0 l 2.171875,-3.578125 0.390625,3.53125 c 0.015625,0.15625 0.046875,0.1875 0.15625,0.1875 0.109375,0 0.15625,-0.0625 0.203125,-0.140625 z m 0,0"
               id="id-ff5f8492-a80c-4d71-a3d5-7a9f06bdff47" />
          </g>
        </g>
      </defs>
      <g
         fill="#000000"
         fill-opacity="1"
         id="id-252a1f0e-74c8-481b-af58-52345bb98b90"
         transform="translate(-149.009,-130.359)">
        <g
           transform="translate(148.712,134.765)"
           id="g3444">
          <path
             d="m 4.84375,-3.796875 c 0.046875,-0.140625 0.046875,-0.15625 0.046875,-0.234375 0,-0.171875 -0.140625,-0.265625 -0.296875,-0.265625 -0.09375,0 -0.25,0.0625 -0.34375,0.203125 -0.015625,0.0625 -0.109375,0.359375 -0.140625,0.546875 -0.078125,0.25 -0.140625,0.53125 -0.203125,0.796875 l -0.453125,1.796875 c -0.03125,0.140625 -0.46875,0.84375 -1.125,0.84375 -0.5,0 -0.609375,-0.4375 -0.609375,-0.8125 C 1.71875,-1.375 1.890625,-2 2.21875,-2.875 2.375,-3.28125 2.421875,-3.390625 2.421875,-3.59375 c 0,-0.4375 -0.3125,-0.8125 -0.8125,-0.8125 -0.953125,0 -1.3125,1.453125 -1.3125,1.53125 0,0.109375 0.09375,0.109375 0.109375,0.109375 0.109375,0 0.109375,-0.03125 0.15625,-0.1875 0.28125,-0.9375 0.671875,-1.234375 1.015625,-1.234375 0.078125,0 0.25,0 0.25,0.3125 0,0.25 -0.109375,0.515625 -0.171875,0.703125 -0.40625,1.0625 -0.578125,1.625 -0.578125,2.09375 0,0.890625 0.625,1.1875 1.21875,1.1875 0.390625,0 0.71875,-0.171875 1,-0.453125 -0.125,0.515625 -0.25,1.015625 -0.640625,1.546875 -0.265625,0.328125 -0.640625,0.625 -1.09375,0.625 -0.140625,0 -0.59375,-0.03125 -0.765625,-0.421875 0.15625,0 0.296875,0 0.421875,-0.125 C 1.328125,1.203125 1.421875,1.0625 1.421875,0.875 1.421875,0.5625 1.15625,0.53125 1.0625,0.53125 0.828125,0.53125 0.5,0.6875 0.5,1.171875 c 0,0.5 0.4375,0.875 1.0625,0.875 1.015625,0 2.046875,-0.90625 2.328125,-2.03125 z m 0,0"
             id="id-34edca23-44ec-46d3-bca6-d983a8f55e68" />
        </g>
      </g>
      <g
         fill="#000000"
         fill-opacity="1"
         id="id-509fdcfb-1534-4e70-8bc2-61b6287c0109"
         transform="translate(-149.009,-130.359)">
        <g
           transform="translate(153.597,136.259)"
           id="g598">
          <path
             d="m 7.21875,-3.9375 0.125,-0.1875 C 7.484375,-4.3125 7.65625,-4.484375 8,-4.515625 c 0.078125,0 0.15625,0 0.15625,-0.140625 0,-0.046875 -0.03125,-0.109375 -0.09375,-0.109375 -0.15625,0 -0.359375,0.03125 -0.53125,0.03125 -0.234375,0 -0.546875,-0.03125 -0.765625,-0.03125 -0.046875,0 -0.15625,0 -0.15625,0.15625 0,0.09375 0.09375,0.09375 0.125,0.09375 0.15625,0.015625 0.390625,0.0625 0.390625,0.25 0,0.078125 -0.078125,0.203125 -0.109375,0.25 l -1.96875,3.234375 -0.375,-3.53125 c 0,-0.1875 0.40625,-0.203125 0.484375,-0.203125 0.09375,0 0.1875,0 0.1875,-0.140625 0,-0.015625 0,-0.109375 -0.125,-0.109375 -0.125,0 -0.296875,0.015625 -0.421875,0.03125 -0.140625,0 -0.328125,0 -0.46875,0 -0.15625,0 -0.5625,-0.03125 -0.71875,-0.03125 -0.046875,0 -0.140625,0 -0.140625,0.15625 0,0.09375 0.078125,0.09375 0.171875,0.09375 0.296875,0 0.34375,0.0625 0.359375,0.125 0,0.046875 0.015625,0.234375 0.046875,0.453125 L 2.125,-0.78125 1.765625,-4.203125 C 1.765625,-4.234375 1.75,-4.296875 1.75,-4.3125 c 0,-0.203125 0.4375,-0.203125 0.484375,-0.203125 0.09375,0 0.1875,0 0.1875,-0.140625 0,-0.03125 -0.015625,-0.109375 -0.109375,-0.109375 -0.203125,0 -0.703125,0.03125 -0.890625,0.03125 -0.234375,0 -0.53125,-0.03125 -0.734375,-0.03125 -0.078125,0 -0.140625,0.03125 -0.140625,0.15625 0,0.09375 0.078125,0.09375 0.1875,0.09375 0.328125,0 0.328125,0.046875 0.359375,0.21875 l 0.453125,4.25 c 0.015625,0.140625 0.03125,0.1875 0.15625,0.1875 C 1.8125,0.140625 1.875,0.078125 1.90625,0 l 2.171875,-3.578125 0.390625,3.53125 c 0.015625,0.15625 0.046875,0.1875 0.15625,0.1875 0.109375,0 0.15625,-0.0625 0.203125,-0.140625 z m 0,0"
             id="id-57799137-ac29-464d-ae6f-751348644807" />
        </g>
      </g>
    </g>
    <g
       transform="matrix(1.04125 0 0 1.04125 12.9496 27.8901)"
       ns2:version="1.10.2"
       ns2:texconverter="pdflatex"
       ns2:pdfconverter="inkscape"
       ns2:text="$\\phi_W$"
       ns2:preamble="/Users/asho/Library/Application Support/org.inkscape.Inkscape/config/inkscape/extensions/textext/default_packages.tex"
       ns2:scale="2.951560754922359"
       ns2:alignment="middle center"
       ns2:stroke-to-path="0"
       ns2:inkscapeversion="1.3.2"
       id="g5306-8"
       ns2:jacobian_sqrt="1.04125">
      <defs
         id="id-c5c3a003-a3e8-4e4e-a276-30bca3d2b8ee">
        <g
           id="id-a7b6312e-37be-4683-9828-f060e2c6d731">
          <g
             id="id-25aad59f-84f4-49af-afc1-607ae9e15284">
            <path
               d="m 4.359375,-6.671875 c 0,-0.03125 0.03125,-0.140625 0.03125,-0.140625 0,-0.015625 0,-0.109375 -0.125,-0.109375 -0.09375,0 -0.109375,0.03125 -0.15625,0.203125 L 3.53125,-4.421875 c -1.578125,0.0625 -3.046875,1.375 -3.046875,2.734375 0,0.953125 0.703125,1.734375 1.921875,1.8125 C 2.328125,0.421875 2.25,0.75 2.171875,1.0625 c -0.125,0.46875 -0.21875,0.84375 -0.21875,0.875 0,0.09375 0.078125,0.109375 0.125,0.109375 C 2.125,2.046875 2.140625,2.03125 2.171875,2 2.1875,1.984375 2.25,1.75 2.28125,1.609375 L 2.65625,0.125 c 1.609375,-0.0625 3.0625,-1.40625 3.0625,-2.734375 0,-0.796875 -0.53125,-1.703125 -1.921875,-1.8125 z m -1.90625,6.578125 c -0.59375,-0.03125 -1.3125,-0.390625 -1.3125,-1.375 0,-1.203125 0.859375,-2.59375 2.34375,-2.734375 z m 1.28125,-4.109375 c 0.765625,0.046875 1.328125,0.5 1.328125,1.375 0,1.1875 -0.859375,2.609375 -2.34375,2.734375 z m 0,0"
               id="id-9ab1c53c-5ce4-4c4b-8eaa-78089fcaf39d" />
          </g>
          <g
             id="id-b93fdc9d-7daa-483c-9863-2910d30d4e67">
            <path
               d="m 7.21875,-3.9375 0.125,-0.1875 C 7.484375,-4.3125 7.65625,-4.484375 8,-4.515625 c 0.078125,0 0.15625,0 0.15625,-0.140625 0,-0.046875 -0.03125,-0.109375 -0.09375,-0.109375 -0.15625,0 -0.359375,0.03125 -0.53125,0.03125 -0.234375,0 -0.546875,-0.03125 -0.765625,-0.03125 -0.046875,0 -0.15625,0 -0.15625,0.15625 0,0.09375 0.09375,0.09375 0.125,0.09375 0.15625,0.015625 0.390625,0.0625 0.390625,0.25 0,0.078125 -0.078125,0.203125 -0.109375,0.25 l -1.96875,3.234375 -0.375,-3.53125 c 0,-0.1875 0.40625,-0.203125 0.484375,-0.203125 0.09375,0 0.1875,0 0.1875,-0.140625 0,-0.015625 0,-0.109375 -0.125,-0.109375 -0.125,0 -0.296875,0.015625 -0.421875,0.03125 -0.140625,0 -0.328125,0 -0.46875,0 -0.15625,0 -0.5625,-0.03125 -0.71875,-0.03125 -0.046875,0 -0.140625,0 -0.140625,0.15625 0,0.09375 0.078125,0.09375 0.171875,0.09375 0.296875,0 0.34375,0.0625 0.359375,0.125 0,0.046875 0.015625,0.234375 0.046875,0.453125 L 2.125,-0.78125 1.765625,-4.203125 C 1.765625,-4.234375 1.75,-4.296875 1.75,-4.3125 c 0,-0.203125 0.4375,-0.203125 0.484375,-0.203125 0.09375,0 0.1875,0 0.1875,-0.140625 0,-0.03125 -0.015625,-0.109375 -0.109375,-0.109375 -0.203125,0 -0.703125,0.03125 -0.890625,0.03125 -0.234375,0 -0.53125,-0.03125 -0.734375,-0.03125 -0.078125,0 -0.140625,0.03125 -0.140625,0.15625 0,0.09375 0.078125,0.09375 0.1875,0.09375 0.328125,0 0.328125,0.046875 0.359375,0.21875 l 0.453125,4.25 c 0.015625,0.140625 0.03125,0.1875 0.15625,0.1875 C 1.8125,0.140625 1.875,0.078125 1.90625,0 l 2.171875,-3.578125 0.390625,3.53125 c 0.015625,0.15625 0.046875,0.1875 0.15625,0.1875 0.109375,0 0.15625,-0.0625 0.203125,-0.140625 z m 0,0"
               id="id-8aa555d1-45db-414c-98c5-dbf3d5594256" />
          </g>
        </g>
      </defs>
      <g
         transform="translate(-0.515578,2.0546734)"
         ns2:version="1.10.2"
         ns2:texconverter="pdflatex"
         ns2:pdfconverter="inkscape"
         ns2:text="$\\phi_{wall}$"
         ns2:preamble="/Users/asho/Library/Application Support/org.inkscape.Inkscape/config/inkscape/extensions/textext/default_packages.tex"
         ns2:scale="2.951560754922359"
         ns2:alignment="middle center"
         ns2:stroke-to-path="0"
         ns2:inkscapeversion="1.3.2"
         id="g8649"
         ns2:jacobian_sqrt="1.0">
        <defs
           id="id-e768d1b6-94fc-49d0-a7b9-3ebfc6c1b150">
          <g
             id="id-26858297-81e2-4faa-91a7-14f7c7b10c6d">
            <g
               id="id-162d2792-72d5-49c8-b9cd-46e60a9f372f">
              <path
                 d="m 4.359375,-6.671875 c 0,-0.03125 0.03125,-0.140625 0.03125,-0.140625 0,-0.015625 0,-0.109375 -0.125,-0.109375 -0.09375,0 -0.109375,0.03125 -0.15625,0.203125 L 3.53125,-4.421875 c -1.578125,0.0625 -3.046875,1.375 -3.046875,2.734375 0,0.953125 0.703125,1.734375 1.921875,1.8125 C 2.328125,0.421875 2.25,0.75 2.171875,1.0625 c -0.125,0.46875 -0.21875,0.84375 -0.21875,0.875 0,0.09375 0.078125,0.109375 0.125,0.109375 C 2.125,2.046875 2.140625,2.03125 2.171875,2 2.1875,1.984375 2.25,1.75 2.28125,1.609375 L 2.65625,0.125 c 1.609375,-0.0625 3.0625,-1.40625 3.0625,-2.734375 0,-0.796875 -0.53125,-1.703125 -1.921875,-1.8125 z m -1.90625,6.578125 c -0.59375,-0.03125 -1.3125,-0.390625 -1.3125,-1.375 0,-1.203125 0.859375,-2.59375 2.34375,-2.734375 z m 1.28125,-4.109375 c 0.765625,0.046875 1.328125,0.5 1.328125,1.375 0,1.1875 -0.859375,2.609375 -2.34375,2.734375 z m 0,0"
                 id="id-8ebe96bf-0a1c-4f73-9275-15d1633d0f68" />
            </g>
            <g
               id="id-dfb06f1c-fbd6-45f4-ae22-f31cd6bc01f7">
              <path
                 d="m 3.671875,-2.21875 c 0.046875,-0.1875 0.125,-0.53125 0.125,-0.5625 C 3.796875,-2.921875 3.6875,-3 3.5625,-3 3.4375,-3 3.3125,-2.921875 3.265625,-2.796875 3.25,-2.75 3.171875,-2.453125 3.125,-2.28125 3.03125,-1.875 3.03125,-1.875 2.921875,-1.484375 2.84375,-1.09375 2.828125,-1.03125 2.8125,-0.84375 2.84375,-0.703125 2.78125,-0.5625 2.625,-0.359375 2.53125,-0.25 2.390625,-0.125 2.15625,-0.125 1.875,-0.125 1.53125,-0.21875 1.53125,-0.765625 1.53125,-1.125 1.71875,-1.640625 1.859375,-2 1.984375,-2.296875 2,-2.359375 2,-2.484375 2,-2.8125 1.71875,-3.078125 1.34375,-3.078125 0.640625,-3.078125 0.328125,-2.125 0.328125,-2 c 0,0.078125 0.09375,0.078125 0.125,0.078125 0.09375,0 0.09375,-0.03125 0.125,-0.109375 C 0.75,-2.609375 1.046875,-2.875 1.328125,-2.875 1.4375,-2.875 1.5,-2.796875 1.5,-2.640625 c 0,0.171875 -0.0625,0.3125 -0.09375,0.40625 C 1,-1.21875 1,-1.078125 1,-0.859375 1,-0.03125 1.75,0.0625 2.125,0.0625 c 0.140625,0 0.46875,0 0.78125,-0.453125 C 3.078125,-0.078125 3.453125,0.0625 3.875,0.0625 4.5,0.0625 4.8125,-0.46875 4.953125,-0.75 5.25,-1.34375 5.4375,-2.203125 5.4375,-2.53125 c 0,-0.515625 -0.296875,-0.546875 -0.34375,-0.546875 -0.1875,0 -0.390625,0.1875 -0.390625,0.375 0,0.109375 0.078125,0.171875 0.125,0.203125 C 5,-2.359375 5.09375,-2.15625 5.09375,-1.9375 c 0,0.09375 -0.296875,1.8125 -1.1875,1.8125 -0.5625,0 -0.5625,-0.5 -0.5625,-0.625 0,-0.1875 0.03125,-0.296875 0.125,-0.6875 z m 0,0"
                 id="id-704d0d03-99da-49e7-b2fd-3346bff1e917" />
            </g>
            <g
               id="id-ebd8fa80-6a81-4098-995e-3437ed0b518f">
              <path
                 d="m 2.9375,-2.65625 c -0.140625,-0.234375 -0.375,-0.421875 -0.71875,-0.421875 -0.890625,0 -1.796875,0.984375 -1.796875,1.984375 0,0.6875 0.453125,1.15625 1.0625,1.15625 0.375,0 0.703125,-0.203125 0.984375,-0.484375 C 2.59375,0 3,0.0625 3.1875,0.0625 c 0.25,0 0.421875,-0.140625 0.546875,-0.359375 0.15625,-0.28125 0.25,-0.671875 0.25,-0.703125 0,-0.09375 -0.09375,-0.09375 -0.109375,-0.09375 -0.109375,0 -0.109375,0.03125 -0.15625,0.21875 C 3.625,-0.53125 3.5,-0.125 3.203125,-0.125 3.03125,-0.125 2.96875,-0.28125 2.96875,-0.46875 c 0,-0.109375 0.0625,-0.375 0.109375,-0.546875 0.046875,-0.1875 0.125,-0.46875 0.15625,-0.625 L 3.375,-2.171875 C 3.421875,-2.359375 3.5,-2.6875 3.5,-2.71875 3.5,-2.875 3.375,-2.9375 3.265625,-2.9375 c -0.125,0 -0.28125,0.078125 -0.328125,0.28125 z M 2.5,-0.875 C 2.453125,-0.671875 2.296875,-0.53125 2.140625,-0.40625 2.078125,-0.34375 1.796875,-0.125 1.5,-0.125 c -0.265625,0 -0.515625,-0.1875 -0.515625,-0.671875 0,-0.375 0.203125,-1.140625 0.375,-1.421875 0.3125,-0.5625 0.671875,-0.65625 0.859375,-0.65625 0.484375,0 0.625,0.53125 0.625,0.609375 0,0.015625 -0.015625,0.078125 -0.015625,0.09375 z m 0,0"
                 id="id-0a0cd81c-c02d-43b2-9f2f-686202d13ce1" />
            </g>
            <g
               id="id-c0484748-cfa8-4a31-ac46-541064216e40">
              <path
                 d="M 1.96875,-4.625 C 1.96875,-4.640625 2,-4.734375 2,-4.734375 2,-4.78125 1.96875,-4.84375 1.875,-4.84375 c -0.140625,0 -0.71875,0.0625 -0.890625,0.078125 -0.046875,0 -0.140625,0.015625 -0.140625,0.15625 0,0.09375 0.09375,0.09375 0.171875,0.09375 0.34375,0 0.34375,0.0625 0.34375,0.109375 0,0.046875 -0.015625,0.09375 -0.03125,0.15625 l -0.875,3.4375 C 0.4375,-0.734375 0.4375,-0.65625 0.4375,-0.59375 c 0,0.453125 0.390625,0.65625 0.71875,0.65625 0.171875,0 0.390625,-0.046875 0.5625,-0.359375 C 1.875,-0.5625 1.96875,-0.96875 1.96875,-1 c 0,-0.09375 -0.09375,-0.09375 -0.109375,-0.09375 -0.109375,0 -0.125,0.046875 -0.140625,0.171875 C 1.625,-0.578125 1.484375,-0.125 1.1875,-0.125 1,-0.125 0.953125,-0.296875 0.953125,-0.46875 0.953125,-0.546875 0.96875,-0.671875 1,-0.75 Z m 0,0"
                 id="id-71c5256a-4e68-4eb5-a8d4-f77c9ee3b229" />
            </g>
          </g>
        </defs>
        <g
           fill="#000000"
           fill-opacity="1"
           id="id-b666329b-326d-4362-b23f-44d4dfa92f3d"
           transform="translate(-149.196,-127.843)">
          <g
             transform="translate(148.712,134.765)"
             id="g6825">
            <path
               d="m 4.359375,-6.671875 c 0,-0.03125 0.03125,-0.140625 0.03125,-0.140625 0,-0.015625 0,-0.109375 -0.125,-0.109375 -0.09375,0 -0.109375,0.03125 -0.15625,0.203125 L 3.53125,-4.421875 c -1.578125,0.0625 -3.046875,1.375 -3.046875,2.734375 0,0.953125 0.703125,1.734375 1.921875,1.8125 C 2.328125,0.421875 2.25,0.75 2.171875,1.0625 c -0.125,0.46875 -0.21875,0.84375 -0.21875,0.875 0,0.09375 0.078125,0.109375 0.125,0.109375 C 2.125,2.046875 2.140625,2.03125 2.171875,2 2.1875,1.984375 2.25,1.75 2.28125,1.609375 L 2.65625,0.125 c 1.609375,-0.0625 3.0625,-1.40625 3.0625,-2.734375 0,-0.796875 -0.53125,-1.703125 -1.921875,-1.8125 z m -1.90625,6.578125 c -0.59375,-0.03125 -1.3125,-0.390625 -1.3125,-1.375 0,-1.203125 0.859375,-2.59375 2.34375,-2.734375 z m 1.28125,-4.109375 c 0.765625,0.046875 1.328125,0.5 1.328125,1.375 0,1.1875 -0.859375,2.609375 -2.34375,2.734375 z m 0,0"
               id="id-02e258ef-79c4-4973-9d03-2c07162631d2" />
          </g>
        </g>
        <g
           fill="#000000"
           fill-opacity="1"
           id="id-ba182821-6291-4482-b542-c17f506e25e7"
           transform="translate(-149.196,-127.843)">
          <g
             transform="translate(154.648,136.259)"
             id="g287">
            <path
               d="m 3.671875,-2.21875 c 0.046875,-0.1875 0.125,-0.53125 0.125,-0.5625 C 3.796875,-2.921875 3.6875,-3 3.5625,-3 3.4375,-3 3.3125,-2.921875 3.265625,-2.796875 3.25,-2.75 3.171875,-2.453125 3.125,-2.28125 3.03125,-1.875 3.03125,-1.875 2.921875,-1.484375 2.84375,-1.09375 2.828125,-1.03125 2.8125,-0.84375 2.84375,-0.703125 2.78125,-0.5625 2.625,-0.359375 2.53125,-0.25 2.390625,-0.125 2.15625,-0.125 1.875,-0.125 1.53125,-0.21875 1.53125,-0.765625 1.53125,-1.125 1.71875,-1.640625 1.859375,-2 1.984375,-2.296875 2,-2.359375 2,-2.484375 2,-2.8125 1.71875,-3.078125 1.34375,-3.078125 0.640625,-3.078125 0.328125,-2.125 0.328125,-2 c 0,0.078125 0.09375,0.078125 0.125,0.078125 0.09375,0 0.09375,-0.03125 0.125,-0.109375 C 0.75,-2.609375 1.046875,-2.875 1.328125,-2.875 1.4375,-2.875 1.5,-2.796875 1.5,-2.640625 c 0,0.171875 -0.0625,0.3125 -0.09375,0.40625 C 1,-1.21875 1,-1.078125 1,-0.859375 1,-0.03125 1.75,0.0625 2.125,0.0625 c 0.140625,0 0.46875,0 0.78125,-0.453125 C 3.078125,-0.078125 3.453125,0.0625 3.875,0.0625 4.5,0.0625 4.8125,-0.46875 4.953125,-0.75 5.25,-1.34375 5.4375,-2.203125 5.4375,-2.53125 c 0,-0.515625 -0.296875,-0.546875 -0.34375,-0.546875 -0.1875,0 -0.390625,0.1875 -0.390625,0.375 0,0.109375 0.078125,0.171875 0.125,0.203125 C 5,-2.359375 5.09375,-2.15625 5.09375,-1.9375 c 0,0.09375 -0.296875,1.8125 -1.1875,1.8125 -0.5625,0 -0.5625,-0.5 -0.5625,-0.625 0,-0.1875 0.03125,-0.296875 0.125,-0.6875 z m 0,0"
               id="id-5335d6a9-a559-41cb-a3d0-34750e690797" />
          </g>
        </g>
        <g
           fill="#000000"
           fill-opacity="1"
           id="id-fb7df334-8cf6-440e-bb66-a773f7c42476"
           transform="translate(-149.196,-127.843)">
          <g
             transform="translate(160.599,136.259)"
             id="g9521">
            <path
               d="m 2.9375,-2.65625 c -0.140625,-0.234375 -0.375,-0.421875 -0.71875,-0.421875 -0.890625,0 -1.796875,0.984375 -1.796875,1.984375 0,0.6875 0.453125,1.15625 1.0625,1.15625 0.375,0 0.703125,-0.203125 0.984375,-0.484375 C 2.59375,0 3,0.0625 3.1875,0.0625 c 0.25,0 0.421875,-0.140625 0.546875,-0.359375 0.15625,-0.28125 0.25,-0.671875 0.25,-0.703125 0,-0.09375 -0.09375,-0.09375 -0.109375,-0.09375 -0.109375,0 -0.109375,0.03125 -0.15625,0.21875 C 3.625,-0.53125 3.5,-0.125 3.203125,-0.125 3.03125,-0.125 2.96875,-0.28125 2.96875,-0.46875 c 0,-0.109375 0.0625,-0.375 0.109375,-0.546875 0.046875,-0.1875 0.125,-0.46875 0.15625,-0.625 L 3.375,-2.171875 C 3.421875,-2.359375 3.5,-2.6875 3.5,-2.71875 3.5,-2.875 3.375,-2.9375 3.265625,-2.9375 c -0.125,0 -0.28125,0.078125 -0.328125,0.28125 z M 2.5,-0.875 C 2.453125,-0.671875 2.296875,-0.53125 2.140625,-0.40625 2.078125,-0.34375 1.796875,-0.125 1.5,-0.125 c -0.265625,0 -0.515625,-0.1875 -0.515625,-0.671875 0,-0.375 0.203125,-1.140625 0.375,-1.421875 0.3125,-0.5625 0.671875,-0.65625 0.859375,-0.65625 0.484375,0 0.625,0.53125 0.625,0.609375 0,0.015625 -0.015625,0.078125 -0.015625,0.09375 z m 0,0"
               id="id-c888943c-d9db-4252-bbea-c324f8370128" />
          </g>
          <g
             transform="translate(164.921,136.259)"
             id="g1347">
            <path
               d="M 1.96875,-4.625 C 1.96875,-4.640625 2,-4.734375 2,-4.734375 2,-4.78125 1.96875,-4.84375 1.875,-4.84375 c -0.140625,0 -0.71875,0.0625 -0.890625,0.078125 -0.046875,0 -0.140625,0.015625 -0.140625,0.15625 0,0.09375 0.09375,0.09375 0.171875,0.09375 0.34375,0 0.34375,0.0625 0.34375,0.109375 0,0.046875 -0.015625,0.09375 -0.03125,0.15625 l -0.875,3.4375 C 0.4375,-0.734375 0.4375,-0.65625 0.4375,-0.59375 c 0,0.453125 0.390625,0.65625 0.71875,0.65625 0.171875,0 0.390625,-0.046875 0.5625,-0.359375 C 1.875,-0.5625 1.96875,-0.96875 1.96875,-1 c 0,-0.09375 -0.09375,-0.09375 -0.109375,-0.09375 -0.109375,0 -0.125,0.046875 -0.140625,0.171875 C 1.625,-0.578125 1.484375,-0.125 1.1875,-0.125 1,-0.125 0.953125,-0.296875 0.953125,-0.46875 0.953125,-0.546875 0.96875,-0.671875 1,-0.75 Z m 0,0"
               id="id-1e2535a2-3548-4f9c-bcdd-4e727637fd2e" />
          </g>
        </g>
        <g
           fill="#000000"
           fill-opacity="1"
           id="id-8fb50534-b2a2-4ec6-a838-3398fe716ec2"
           transform="translate(-149.196,-127.843)">
          <g
             transform="translate(167.483,136.259)"
             id="g2513">
            <path
               d="M 1.96875,-4.625 C 1.96875,-4.640625 2,-4.734375 2,-4.734375 2,-4.78125 1.96875,-4.84375 1.875,-4.84375 c -0.140625,0 -0.71875,0.0625 -0.890625,0.078125 -0.046875,0 -0.140625,0.015625 -0.140625,0.15625 0,0.09375 0.09375,0.09375 0.171875,0.09375 0.34375,0 0.34375,0.0625 0.34375,0.109375 0,0.046875 -0.015625,0.09375 -0.03125,0.15625 l -0.875,3.4375 C 0.4375,-0.734375 0.4375,-0.65625 0.4375,-0.59375 c 0,0.453125 0.390625,0.65625 0.71875,0.65625 0.171875,0 0.390625,-0.046875 0.5625,-0.359375 C 1.875,-0.5625 1.96875,-0.96875 1.96875,-1 c 0,-0.09375 -0.09375,-0.09375 -0.109375,-0.09375 -0.109375,0 -0.125,0.046875 -0.140625,0.171875 C 1.625,-0.578125 1.484375,-0.125 1.1875,-0.125 1,-0.125 0.953125,-0.296875 0.953125,-0.46875 0.953125,-0.546875 0.96875,-0.671875 1,-0.75 Z m 0,0"
               id="id-d6e403dd-dc88-44df-b9df-eb88a5dc77cb" />
          </g>
        </g>
      </g>
    </g>
    <g
       transform="matrix(1.04125,0,0,1.04125,15.000131,8.4058464)"
       ns2:version="1.10.2"
       ns2:texconverter="pdflatex"
       ns2:pdfconverter="inkscape"
       ns2:text="$y_w$"
       ns2:preamble="/Users/asho/Library/Application Support/org.inkscape.Inkscape/config/inkscape/extensions/textext/default_packages.tex"
       ns2:scale="2.951560754922359"
       ns2:alignment="middle center"
       ns2:stroke-to-path="0"
       ns2:inkscapeversion="1.3.2"
       id="g9072-1"
       ns2:jacobian_sqrt="1.04125">
      <defs
         id="id-af86379d-2b31-47ea-b41b-e3764b4504fd">
        <g
           id="id-d7c6850d-440a-426c-9524-b0d56ec6df5f">
          <g
             id="id-5553e035-98e8-430f-9f03-b5fb0ddd860e">
            <path
               d="m 4.84375,-3.796875 c 0.046875,-0.140625 0.046875,-0.15625 0.046875,-0.234375 0,-0.171875 -0.140625,-0.265625 -0.296875,-0.265625 -0.09375,0 -0.25,0.0625 -0.34375,0.203125 -0.015625,0.0625 -0.109375,0.359375 -0.140625,0.546875 -0.078125,0.25 -0.140625,0.53125 -0.203125,0.796875 l -0.453125,1.796875 c -0.03125,0.140625 -0.46875,0.84375 -1.125,0.84375 -0.5,0 -0.609375,-0.4375 -0.609375,-0.8125 C 1.71875,-1.375 1.890625,-2 2.21875,-2.875 2.375,-3.28125 2.421875,-3.390625 2.421875,-3.59375 c 0,-0.4375 -0.3125,-0.8125 -0.8125,-0.8125 -0.953125,0 -1.3125,1.453125 -1.3125,1.53125 0,0.109375 0.09375,0.109375 0.109375,0.109375 0.109375,0 0.109375,-0.03125 0.15625,-0.1875 0.28125,-0.9375 0.671875,-1.234375 1.015625,-1.234375 0.078125,0 0.25,0 0.25,0.3125 0,0.25 -0.109375,0.515625 -0.171875,0.703125 -0.40625,1.0625 -0.578125,1.625 -0.578125,2.09375 0,0.890625 0.625,1.1875 1.21875,1.1875 0.390625,0 0.71875,-0.171875 1,-0.453125 -0.125,0.515625 -0.25,1.015625 -0.640625,1.546875 -0.265625,0.328125 -0.640625,0.625 -1.09375,0.625 -0.140625,0 -0.59375,-0.03125 -0.765625,-0.421875 0.15625,0 0.296875,0 0.421875,-0.125 C 1.328125,1.203125 1.421875,1.0625 1.421875,0.875 1.421875,0.5625 1.15625,0.53125 1.0625,0.53125 0.828125,0.53125 0.5,0.6875 0.5,1.171875 c 0,0.5 0.4375,0.875 1.0625,0.875 1.015625,0 2.046875,-0.90625 2.328125,-2.03125 z m 0,0"
               id="id-62489c7a-fd19-4264-b69c-1ea1d76c6d6c" />
          </g>
          <g
             id="id-3b8fbabe-5692-4bba-bac8-c3f7d86e512a">
            <path
               d="m 3.671875,-2.21875 c 0.046875,-0.1875 0.125,-0.53125 0.125,-0.5625 C 3.796875,-2.921875 3.6875,-3 3.5625,-3 3.4375,-3 3.3125,-2.921875 3.265625,-2.796875 3.25,-2.75 3.171875,-2.453125 3.125,-2.28125 3.03125,-1.875 3.03125,-1.875 2.921875,-1.484375 2.84375,-1.09375 2.828125,-1.03125 2.8125,-0.84375 2.84375,-0.703125 2.78125,-0.5625 2.625,-0.359375 2.53125,-0.25 2.390625,-0.125 2.15625,-0.125 1.875,-0.125 1.53125,-0.21875 1.53125,-0.765625 1.53125,-1.125 1.71875,-1.640625 1.859375,-2 1.984375,-2.296875 2,-2.359375 2,-2.484375 2,-2.8125 1.71875,-3.078125 1.34375,-3.078125 0.640625,-3.078125 0.328125,-2.125 0.328125,-2 c 0,0.078125 0.09375,0.078125 0.125,0.078125 0.09375,0 0.09375,-0.03125 0.125,-0.109375 C 0.75,-2.609375 1.046875,-2.875 1.328125,-2.875 1.4375,-2.875 1.5,-2.796875 1.5,-2.640625 c 0,0.171875 -0.0625,0.3125 -0.09375,0.40625 C 1,-1.21875 1,-1.078125 1,-0.859375 1,-0.03125 1.75,0.0625 2.125,0.0625 c 0.140625,0 0.46875,0 0.78125,-0.453125 C 3.078125,-0.078125 3.453125,0.0625 3.875,0.0625 4.5,0.0625 4.8125,-0.46875 4.953125,-0.75 5.25,-1.34375 5.4375,-2.203125 5.4375,-2.53125 c 0,-0.515625 -0.296875,-0.546875 -0.34375,-0.546875 -0.1875,0 -0.390625,0.1875 -0.390625,0.375 0,0.109375 0.078125,0.171875 0.125,0.203125 C 5,-2.359375 5.09375,-2.15625 5.09375,-1.9375 c 0,0.09375 -0.296875,1.8125 -1.1875,1.8125 -0.5625,0 -0.5625,-0.5 -0.5625,-0.625 0,-0.1875 0.03125,-0.296875 0.125,-0.6875 z m 0,0"
               id="id-63d86f5f-244b-4b47-8ea2-d360257bec3d" />
          </g>
        </g>
      </defs>
      <g
         fill="#000000"
         fill-opacity="1"
         id="id-2f60d55e-221b-4114-b1ef-06f55bb0e3fa"
         transform="translate(-149.009,-130.359)">
        <g
           transform="translate(148.712,134.765)"
           id="g6878">
          <path
             d="m 4.84375,-3.796875 c 0.046875,-0.140625 0.046875,-0.15625 0.046875,-0.234375 0,-0.171875 -0.140625,-0.265625 -0.296875,-0.265625 -0.09375,0 -0.25,0.0625 -0.34375,0.203125 -0.015625,0.0625 -0.109375,0.359375 -0.140625,0.546875 -0.078125,0.25 -0.140625,0.53125 -0.203125,0.796875 l -0.453125,1.796875 c -0.03125,0.140625 -0.46875,0.84375 -1.125,0.84375 -0.5,0 -0.609375,-0.4375 -0.609375,-0.8125 C 1.71875,-1.375 1.890625,-2 2.21875,-2.875 2.375,-3.28125 2.421875,-3.390625 2.421875,-3.59375 c 0,-0.4375 -0.3125,-0.8125 -0.8125,-0.8125 -0.953125,0 -1.3125,1.453125 -1.3125,1.53125 0,0.109375 0.09375,0.109375 0.109375,0.109375 0.109375,0 0.109375,-0.03125 0.15625,-0.1875 0.28125,-0.9375 0.671875,-1.234375 1.015625,-1.234375 0.078125,0 0.25,0 0.25,0.3125 0,0.25 -0.109375,0.515625 -0.171875,0.703125 -0.40625,1.0625 -0.578125,1.625 -0.578125,2.09375 0,0.890625 0.625,1.1875 1.21875,1.1875 0.390625,0 0.71875,-0.171875 1,-0.453125 -0.125,0.515625 -0.25,1.015625 -0.640625,1.546875 -0.265625,0.328125 -0.640625,0.625 -1.09375,0.625 -0.140625,0 -0.59375,-0.03125 -0.765625,-0.421875 0.15625,0 0.296875,0 0.421875,-0.125 C 1.328125,1.203125 1.421875,1.0625 1.421875,0.875 1.421875,0.5625 1.15625,0.53125 1.0625,0.53125 0.828125,0.53125 0.5,0.6875 0.5,1.171875 c 0,0.5 0.4375,0.875 1.0625,0.875 1.015625,0 2.046875,-0.90625 2.328125,-2.03125 z m 0,0"
             id="id-a0f7fc96-8342-4c96-b69b-f8f710cd20bc" />
        </g>
      </g>
      <g
         fill="#000000"
         fill-opacity="1"
         id="id-3fb11554-54d2-48f1-85ab-9fbfdde8c8c1"
         transform="translate(-149.009,-130.359)">
        <g
           transform="translate(153.597,136.259)"
           id="g4344">
          <path
             d="m 3.671875,-2.21875 c 0.046875,-0.1875 0.125,-0.53125 0.125,-0.5625 C 3.796875,-2.921875 3.6875,-3 3.5625,-3 3.4375,-3 3.3125,-2.921875 3.265625,-2.796875 3.25,-2.75 3.171875,-2.453125 3.125,-2.28125 3.03125,-1.875 3.03125,-1.875 2.921875,-1.484375 2.84375,-1.09375 2.828125,-1.03125 2.8125,-0.84375 2.84375,-0.703125 2.78125,-0.5625 2.625,-0.359375 2.53125,-0.25 2.390625,-0.125 2.15625,-0.125 1.875,-0.125 1.53125,-0.21875 1.53125,-0.765625 1.53125,-1.125 1.71875,-1.640625 1.859375,-2 1.984375,-2.296875 2,-2.359375 2,-2.484375 2,-2.8125 1.71875,-3.078125 1.34375,-3.078125 0.640625,-3.078125 0.328125,-2.125 0.328125,-2 c 0,0.078125 0.09375,0.078125 0.125,0.078125 0.09375,0 0.09375,-0.03125 0.125,-0.109375 C 0.75,-2.609375 1.046875,-2.875 1.328125,-2.875 1.4375,-2.875 1.5,-2.796875 1.5,-2.640625 c 0,0.171875 -0.0625,0.3125 -0.09375,0.40625 C 1,-1.21875 1,-1.078125 1,-0.859375 1,-0.03125 1.75,0.0625 2.125,0.0625 c 0.140625,0 0.46875,0 0.78125,-0.453125 C 3.078125,-0.078125 3.453125,0.0625 3.875,0.0625 4.5,0.0625 4.8125,-0.46875 4.953125,-0.75 5.25,-1.34375 5.4375,-2.203125 5.4375,-2.53125 c 0,-0.515625 -0.296875,-0.546875 -0.34375,-0.546875 -0.1875,0 -0.390625,0.1875 -0.390625,0.375 0,0.109375 0.078125,0.171875 0.125,0.203125 C 5,-2.359375 5.09375,-2.15625 5.09375,-1.9375 c 0,0.09375 -0.296875,1.8125 -1.1875,1.8125 -0.5625,0 -0.5625,-0.5 -0.5625,-0.625 0,-0.1875 0.03125,-0.296875 0.125,-0.6875 z m 0,0"
             id="id-9c672a12-86d1-4ad6-9856-19438d5b0009" />
        </g>
      </g>
    </g>
  </g>
</svg>
